<?xml version="1.0" encoding="ISO-8859-1"?>
<!DOCTYPE svg PUBLIC "-//W3C//DTD SVG 1.0//EN" "http://www.w3.org/TR/2001/REC-SVG-20010904/DTD/svg10.dtd">
<!-- generated by Grace-5.1.25 -->
<svg xml:space="preserve" width="11.0000in" height="8.5000in" viewBox="0.0000 0.0000 792.0000 612.0000">
 <g transform="translate(0,612.0000) scale(1,-1)">
  <g style="fill:#FFFFFF; fill-rule:nonzero">
   <path  d="M0.0000,0.0000L0.0000,612.0000L792.0000,612.0000L792.0000,0.0000z"/>
  </g>
  <g style="fill:none; stroke:#000000; stroke-width:  2.7540; stroke-linecap:butt; stroke-linejoin:miter; stroke-dasharray:none">
   <path d="M202.2719,235.1073L233.9558,163.7851L303.4584,124.8562L378.4721,119.9691L423.0460,120.0169L512.9900,121.8523L561.0277,121.4905L717.4104,120.8657"/>
  </g>
  <g style="fill:#000000; fill-rule:nonzero">
   <ellipse  rx="7.6500" ry="7.6500" cx="202.2719" cy="235.1073"/>
  </g>
  <g style="fill:none; stroke:#000000; stroke-width:  0.9180; stroke-linecap:butt; stroke-linejoin:miter; stroke-dasharray:none">
   <ellipse  rx="7.6500" ry="7.6500" cx="202.2719" cy="235.1073"/>
  </g>
  <g style="fill:#000000; fill-rule:nonzero">
   <ellipse  rx="7.6500" ry="7.6500" cx="233.9558" cy="163.7851"/>
  </g>
  <g style="fill:none; stroke:#000000; stroke-width:  0.9180; stroke-linecap:butt; stroke-linejoin:miter; stroke-dasharray:none">
   <ellipse  rx="7.6500" ry="7.6500" cx="233.9558" cy="163.7851"/>
  </g>
  <g style="fill:#000000; fill-rule:nonzero">
   <ellipse  rx="7.6500" ry="7.6500" cx="303.4584" cy="124.8562"/>
  </g>
  <g style="fill:none; stroke:#000000; stroke-width:  0.9180; stroke-linecap:butt; stroke-linejoin:miter; stroke-dasharray:none">
   <ellipse  rx="7.6500" ry="7.6500" cx="303.4584" cy="124.8562"/>
  </g>
  <g style="fill:#000000; fill-rule:nonzero">
   <ellipse  rx="7.6500" ry="7.6500" cx="378.4721" cy="119.9691"/>
  </g>
  <g style="fill:none; stroke:#000000; stroke-width:  0.9180; stroke-linecap:butt; stroke-linejoin:miter; stroke-dasharray:none">
   <ellipse  rx="7.6500" ry="7.6500" cx="378.4721" cy="119.9691"/>
  </g>
  <g style="fill:#000000; fill-rule:nonzero">
   <ellipse  rx="7.6500" ry="7.6500" cx="423.0460" cy="120.0169"/>
  </g>
  <g style="fill:none; stroke:#000000; stroke-width:  0.9180; stroke-linecap:butt; stroke-linejoin:miter; stroke-dasharray:none">
   <ellipse  rx="7.6500" ry="7.6500" cx="423.0460" cy="120.0169"/>
  </g>
  <g style="fill:#000000; fill-rule:nonzero">
   <ellipse  rx="7.6500" ry="7.6500" cx="512.9900" cy="121.8523"/>
  </g>
  <g style="fill:none; stroke:#000000; stroke-width:  0.9180; stroke-linecap:butt; stroke-linejoin:miter; stroke-dasharray:none">
   <ellipse  rx="7.6500" ry="7.6500" cx="512.9900" cy="121.8523"/>
  </g>
  <g style="fill:#000000; fill-rule:nonzero">
   <ellipse  rx="7.6500" ry="7.6500" cx="561.0277" cy="121.4905"/>
  </g>
  <g style="fill:none; stroke:#000000; stroke-width:  0.9180; stroke-linecap:butt; stroke-linejoin:miter; stroke-dasharray:none">
   <ellipse  rx="7.6500" ry="7.6500" cx="561.0277" cy="121.4905"/>
  </g>
  <g style="fill:#000000; fill-rule:nonzero">
   <ellipse  rx="7.6500" ry="7.6500" cx="717.4104" cy="120.8657"/>
  </g>
  <g style="fill:none; stroke:#000000; stroke-width:  0.9180; stroke-linecap:butt; stroke-linejoin:miter; stroke-dasharray:none">
   <ellipse  rx="7.6500" ry="7.6500" cx="717.4104" cy="120.8657"/>
  </g>
  <g style="fill:none; stroke:#FF0000; stroke-width:  2.7540; stroke-linecap:butt; stroke-linejoin:miter; stroke-dasharray:none">
   <path d="M252.6347,581.4612L303.4584,376.4929L378.4721,253.6889L423.0460,202.1171L512.9900,163.8319L561.0277,147.7393L717.4104,130.2013"/>
  </g>
  <g style="fill:#FF0000; fill-rule:nonzero">
   <path  d="M303.4584,385.3263L295.8084,372.0761L311.1084,372.0761z"/>
  </g>
  <g style="fill:none; stroke:#FF0000; stroke-width:  0.9180; stroke-linecap:butt; stroke-linejoin:miter; stroke-dasharray:none">
   <path d="M303.4584,385.3263L295.8084,372.0761L311.1084,372.0761z"/>
  </g>
  <g style="fill:#FF0000; fill-rule:nonzero">
   <path  d="M378.4721,262.5224L370.8221,249.2722L386.1221,249.2722z"/>
  </g>
  <g style="fill:none; stroke:#FF0000; stroke-width:  0.9180; stroke-linecap:butt; stroke-linejoin:miter; stroke-dasharray:none">
   <path d="M378.4721,262.5224L370.8221,249.2722L386.1221,249.2722z"/>
  </g>
  <g style="fill:#FF0000; fill-rule:nonzero">
   <path  d="M423.0460,210.9506L415.3960,197.7004L430.6960,197.7004z"/>
  </g>
  <g style="fill:none; stroke:#FF0000; stroke-width:  0.9180; stroke-linecap:butt; stroke-linejoin:miter; stroke-dasharray:none">
   <path d="M423.0460,210.9506L415.3960,197.7004L430.6960,197.7004z"/>
  </g>
  <g style="fill:#FF0000; fill-rule:nonzero">
   <path  d="M512.9900,172.6654L505.3400,159.4152L520.6400,159.4152z"/>
  </g>
  <g style="fill:none; stroke:#FF0000; stroke-width:  0.9180; stroke-linecap:butt; stroke-linejoin:miter; stroke-dasharray:none">
   <path d="M512.9900,172.6654L505.3400,159.4152L520.6400,159.4152z"/>
  </g>
  <g style="fill:#FF0000; fill-rule:nonzero">
   <path  d="M561.0277,156.5728L553.3777,143.3226L568.6777,143.3226z"/>
  </g>
  <g style="fill:none; stroke:#FF0000; stroke-width:  0.9180; stroke-linecap:butt; stroke-linejoin:miter; stroke-dasharray:none">
   <path d="M561.0277,156.5728L553.3777,143.3226L568.6777,143.3226z"/>
  </g>
  <g style="fill:#FF0000; fill-rule:nonzero">
   <path  d="M717.4104,139.0348L709.7604,125.7846L725.0604,125.7846z"/>
  </g>
  <g style="fill:none; stroke:#FF0000; stroke-width:  0.9180; stroke-linecap:butt; stroke-linejoin:miter; stroke-dasharray:none">
   <path d="M717.4104,139.0348L709.7604,125.7846L725.0604,125.7846z"/>
  </g>
  <g style="fill:none; stroke:#0000FF; stroke-width:  2.7540; stroke-linecap:butt; stroke-linejoin:miter; stroke-dasharray:none">
   <path d="M226.8973,581.4612L233.9558,508.4299L303.4584,292.2225L378.4721,204.5362L423.0460,169.5446L512.9900,144.2757L561.0277,134.5227L717.4104,124.6181"/>
  </g>
  <g style="fill:#0000FF; fill-rule:nonzero">
   <path  d="M227.4533,501.9274L227.4533,514.9324L240.4583,514.9324L240.4583,501.9274z"/>
  </g>
  <g style="fill:none; stroke:#0000FF; stroke-width:  0.9180; stroke-linecap:butt; stroke-linejoin:miter; stroke-dasharray:none">
   <path d="M227.4533,501.9274L227.4533,514.9324L240.4583,514.9324L240.4583,501.9274z"/>
  </g>
  <g style="fill:#0000FF; fill-rule:nonzero">
   <path  d="M296.9559,285.7200L296.9559,298.7250L309.9609,298.7250L309.9609,285.7200z"/>
  </g>
  <g style="fill:none; stroke:#0000FF; stroke-width:  0.9180; stroke-linecap:butt; stroke-linejoin:miter; stroke-dasharray:none">
   <path d="M296.9559,285.7200L296.9559,298.7250L309.9609,298.7250L309.9609,285.7200z"/>
  </g>
  <g style="fill:#0000FF; fill-rule:nonzero">
   <path  d="M371.9696,198.0337L371.9696,211.0387L384.9746,211.0387L384.9746,198.0337z"/>
  </g>
  <g style="fill:none; stroke:#0000FF; stroke-width:  0.9180; stroke-linecap:butt; stroke-linejoin:miter; stroke-dasharray:none">
   <path d="M371.9696,198.0337L371.9696,211.0387L384.9746,211.0387L384.9746,198.0337z"/>
  </g>
  <g style="fill:#0000FF; fill-rule:nonzero">
   <path  d="M416.5435,163.0421L416.5435,176.0471L429.5485,176.0471L429.5485,163.0421z"/>
  </g>
  <g style="fill:none; stroke:#0000FF; stroke-width:  0.9180; stroke-linecap:butt; stroke-linejoin:miter; stroke-dasharray:none">
   <path d="M416.5435,163.0421L416.5435,176.0471L429.5485,176.0471L429.5485,163.0421z"/>
  </g>
  <g style="fill:#0000FF; fill-rule:nonzero">
   <path  d="M506.4875,137.7732L506.4875,150.7782L519.4925,150.7782L519.4925,137.7732z"/>
  </g>
  <g style="fill:none; stroke:#0000FF; stroke-width:  0.9180; stroke-linecap:butt; stroke-linejoin:miter; stroke-dasharray:none">
   <path d="M506.4875,137.7732L506.4875,150.7782L519.4925,150.7782L519.4925,137.7732z"/>
  </g>
  <g style="fill:#0000FF; fill-rule:nonzero">
   <path  d="M554.5252,128.0202L554.5252,141.0252L567.5302,141.0252L567.5302,128.0202z"/>
  </g>
  <g style="fill:none; stroke:#0000FF; stroke-width:  0.9180; stroke-linecap:butt; stroke-linejoin:miter; stroke-dasharray:none">
   <path d="M554.5252,128.0202L554.5252,141.0252L567.5302,141.0252L567.5302,128.0202z"/>
  </g>
  <g style="fill:#0000FF; fill-rule:nonzero">
   <path  d="M710.9079,118.1156L710.9079,131.1206L723.9129,131.1206L723.9129,118.1156z"/>
  </g>
  <g style="fill:none; stroke:#0000FF; stroke-width:  0.9180; stroke-linecap:butt; stroke-linejoin:miter; stroke-dasharray:none">
   <path d="M710.9079,118.1156L710.9079,131.1206L723.9129,131.1206L723.9129,118.1156z"/>
  </g>
  <g style="fill:none; stroke:#000000; stroke-width:  2.7540; stroke-linecap:butt; stroke-linejoin:miter; stroke-dasharray:none">
   <path d="M765.0612,119.6182L110.0988,119.6182"/>
  </g>
  <g style="fill:none; stroke:#000000; stroke-width:  0.9180; stroke-linecap:butt; stroke-linejoin:miter; stroke-dasharray:none">
   <path d="M110.1600,73.4400L765.0000,73.4400"/>
   <path d="M110.1600,581.4000L765.0000,581.4000"/>
  </g>
  <g style="fill:none; stroke:#000000; stroke-width:  2.7540; stroke-linecap:butt; stroke-linejoin:miter; stroke-dasharray:none">
   <path d="M144.6253,73.4400L144.6253,85.6800"/>
   <path d="M144.6253,581.4000L144.6253,569.1600"/>
   <path d="M316.9516,73.4400L316.9516,85.6800"/>
   <path d="M316.9516,581.4000L316.9516,569.1600"/>
   <path d="M489.2779,73.4400L489.2779,85.6800"/>
   <path d="M489.2779,581.4000L489.2779,569.1600"/>
   <path d="M661.6042,73.4400L661.6042,85.6800"/>
   <path d="M661.6042,581.4000L661.6042,569.1600"/>
  </g>
  <g style="fill:#000000; fill-rule:nonzero">
   <text   style="font-family:'Times','Nimbus Roman No9 L'; font-style:normal; font-weight:bold; font-size:612.0000" transform="matrix(0.0490,0.0000,-0.0000,-0.0490,129.6253,46.3200)">50</text>
   <text   style="font-family:'Times','Nimbus Roman No9 L'; font-style:normal; font-weight:bold; font-size:612.0000" transform="matrix(0.0490,0.0000,-0.0000,-0.0490,294.4516,46.3200)">100</text>
   <text   style="font-family:'Times','Nimbus Roman No9 L'; font-style:normal; font-weight:bold; font-size:612.0000" transform="matrix(0.0490,0.0000,-0.0000,-0.0490,466.7779,46.3200)">150</text>
   <text   style="font-family:'Times','Nimbus Roman No9 L'; font-style:normal; font-weight:bold; font-size:612.0000" transform="matrix(0.0490,0.0000,-0.0000,-0.0490,639.1042,46.3200)">200</text>
   <text   style="font-family:'Times','Nimbus Roman No9 L'; font-style:normal; font-weight:bold; font-size:612.0000" transform="matrix(0.0490,0.0000,-0.0000,-0.0490,318.0800,18.2000)">Energy cutoff (Ry)</text>
  </g>
  <g style="fill:none; stroke:#000000; stroke-width:  0.9180; stroke-linecap:butt; stroke-linejoin:miter; stroke-dasharray:none">
   <path d="M110.1600,73.4400L110.1600,581.4000"/>
   <path d="M765.0000,73.4400L765.0000,581.4000"/>
  </g>
  <g style="fill:none; stroke:#000000; stroke-width:  2.7540; stroke-linecap:butt; stroke-linejoin:miter; stroke-dasharray:none">
   <path d="M110.1600,119.6182L122.4000,119.6182"/>
   <path d="M765.0000,119.6182L752.7600,119.6182"/>
   <path d="M110.1600,304.3309L122.4000,304.3309"/>
   <path d="M765.0000,304.3309L752.7600,304.3309"/>
   <path d="M110.1600,489.0436L122.4000,489.0436"/>
   <path d="M765.0000,489.0436L752.7600,489.0436"/>
  </g>
  <g style="fill:#000000; fill-rule:nonzero">
   <text   style="font-family:'Times','Nimbus Roman No9 L'; font-style:normal; font-weight:bold; font-size:612.0000" transform="matrix(0.0490,0.0000,-0.0000,-0.0490,89.0400,109.6182)">0</text>
   <text   style="font-family:'Times','Nimbus Roman No9 L'; font-style:normal; font-weight:bold; font-size:612.0000" transform="matrix(0.0490,0.0000,-0.0000,-0.0490,37.0400,294.3309)">0.008</text>
   <text   style="font-family:'Times','Nimbus Roman No9 L'; font-style:normal; font-weight:bold; font-size:612.0000" transform="matrix(0.0490,0.0000,-0.0000,-0.0490,37.0400,479.0436)">0.016</text>
   <text   style="font-family:'Symbol','Standard Symbols L'; font-style:normal; font-weight:normal; font-size:612.0000" transform="matrix(0.0000,0.0490,0.0490,-0.0000,24.9200,236.9200)">DE</text>
   <text   style="font-family:'Times','Nimbus Roman No9 L'; font-style:normal; font-weight:bold; font-size:612.0000" transform="matrix(0.0000,0.0490,0.0490,-0.0000,24.9200,273.9200)">  (Ry/atom)</text>
  </g>
  <g style="fill:none; stroke:#000000; stroke-width:  2.7540; stroke-linecap:butt; stroke-linejoin:miter; stroke-dasharray:none">
   <path d="M110.1600,73.4400L110.1600,581.4000L765.0000,581.4000L765.0000,73.4400z"/>
  </g>
  <g style="fill:#FFFFFF; fill-rule:nonzero">
   <path  d="M520.2000,544.6800L520.2000,463.2000L681.7990,463.2000L681.7990,544.6800z"/>
  </g>
  <g style="fill:none; stroke:#000000; stroke-width:  2.7540; stroke-linecap:butt; stroke-linejoin:miter; stroke-dasharray:none">
   <path d="M520.2000,544.6800L520.2000,463.2000L681.7990,463.2000L681.7990,544.6800z"/>
  </g>
  <g style="fill:#000000; fill-rule:nonzero">
   <text   style="font-family:'Times','Nimbus Roman No9 L'; font-style:normal; font-weight:bold; font-size:612.0000" transform="matrix(0.0420,0.0000,-0.0000,-0.0420,572.6790,520.5600)">8th AFD</text>
  </g>
  <g style="fill:none; stroke:#000000; stroke-width:  2.7540; stroke-linecap:butt; stroke-linejoin:miter; stroke-dasharray:none">
   <path d="M534.4290,529.0600L558.9090,529.0600"/>
  </g>
  <g style="fill:#000000; fill-rule:nonzero">
   <ellipse  rx="7.6500" ry="7.6500" cx="534.4290" cy="529.0600"/>
  </g>
  <g style="fill:none; stroke:#000000; stroke-width:  0.9180; stroke-linecap:butt; stroke-linejoin:miter; stroke-dasharray:none">
   <ellipse  rx="7.6500" ry="7.6500" cx="534.4290" cy="529.0600"/>
  </g>
  <g style="fill:#000000; fill-rule:nonzero">
   <ellipse  rx="7.6500" ry="7.6500" cx="558.9090" cy="529.0600"/>
  </g>
  <g style="fill:none; stroke:#000000; stroke-width:  0.9180; stroke-linecap:butt; stroke-linejoin:miter; stroke-dasharray:none">
   <ellipse  rx="7.6500" ry="7.6500" cx="558.9090" cy="529.0600"/>
  </g>
  <g style="fill:#000000; fill-rule:nonzero">
   <text   style="font-family:'Times','Nimbus Roman No9 L'; font-style:normal; font-weight:bold; font-size:612.0000" transform="matrix(0.0420,0.0000,-0.0000,-0.0420,572.6790,495.4400)">10th SFD</text>
  </g>
  <g style="fill:none; stroke:#FF0000; stroke-width:  2.7540; stroke-linecap:butt; stroke-linejoin:miter; stroke-dasharray:none">
   <path d="M534.4290,503.9400L558.9090,503.9400"/>
  </g>
  <g style="fill:#FF0000; fill-rule:nonzero">
   <path  d="M534.4290,512.7735L526.7790,499.5233L542.0790,499.5233z"/>
  </g>
  <g style="fill:none; stroke:#FF0000; stroke-width:  0.9180; stroke-linecap:butt; stroke-linejoin:miter; stroke-dasharray:none">
   <path d="M534.4290,512.7735L526.7790,499.5233L542.0790,499.5233z"/>
  </g>
  <g style="fill:#FF0000; fill-rule:nonzero">
   <path  d="M558.9090,512.7735L551.2590,499.5233L566.5590,499.5233z"/>
  </g>
  <g style="fill:none; stroke:#FF0000; stroke-width:  0.9180; stroke-linecap:butt; stroke-linejoin:miter; stroke-dasharray:none">
   <path d="M558.9090,512.7735L551.2590,499.5233L566.5590,499.5233z"/>
  </g>
  <g style="fill:#000000; fill-rule:nonzero">
   <text   style="font-family:'Times','Nimbus Roman No9 L'; font-style:normal; font-weight:bold; font-size:612.0000" transform="matrix(0.0420,0.0000,-0.0000,-0.0420,572.6790,470.3200)">12th SFD</text>
  </g>
  <g style="fill:none; stroke:#0000FF; stroke-width:  2.7540; stroke-linecap:butt; stroke-linejoin:miter; stroke-dasharray:none">
   <path d="M534.4290,478.8200L558.9090,478.8200"/>
  </g>
  <g style="fill:#0000FF; fill-rule:nonzero">
   <path  d="M527.9265,472.3175L527.9265,485.3225L540.9315,485.3225L540.9315,472.3175z"/>
  </g>
  <g style="fill:none; stroke:#0000FF; stroke-width:  0.9180; stroke-linecap:butt; stroke-linejoin:miter; stroke-dasharray:none">
   <path d="M527.9265,472.3175L527.9265,485.3225L540.9315,485.3225L540.9315,472.3175z"/>
  </g>
  <g style="fill:#0000FF; fill-rule:nonzero">
   <path  d="M552.4065,472.3175L552.4065,485.3225L565.4115,485.3225L565.4115,472.3175z"/>
  </g>
  <g style="fill:none; stroke:#0000FF; stroke-width:  0.9180; stroke-linecap:butt; stroke-linejoin:miter; stroke-dasharray:none">
   <path d="M552.4065,472.3175L552.4065,485.3225L565.4115,485.3225L565.4115,472.3175z"/>
  </g>
  <g style="fill:#000000; fill-rule:nonzero">
   <text   style="font-family:'Times','Nimbus Roman No9 L'; font-style:normal; font-weight:bold; font-size:612.0000" transform="matrix(0.0840,0.0000,-0.0000,-0.0840,520.2000,410.0400)">Borax</text>
  </g>
 </g>
</svg>
