<?xml version="1.0" encoding="ISO-8859-1"?>
<!DOCTYPE svg PUBLIC "-//W3C//DTD SVG 1.0//EN" "http://www.w3.org/TR/2001/REC-SVG-20010904/DTD/svg10.dtd">
<!-- generated by Grace-5.1.25 -->
<svg xml:space="preserve" width="11.0000in" height="8.5000in" viewBox="0.0000 0.0000 792.0000 612.0000">
 <g transform="translate(0,612.0000) scale(1,-1)">
  <g style="fill:#FFFFFF; fill-rule:nonzero">
   <path  d="M0.0000,0.0000L0.0000,612.0000L792.0000,612.0000L792.0000,0.0000z"/>
  </g>
  <g style="fill:none; stroke:#000000; stroke-width:  2.7540; stroke-linecap:butt; stroke-linejoin:miter; stroke-dasharray:none">
   <path d="M171.9397,176.8218L225.2784,141.1130L310.3183,121.6225L363.7776,119.1757L416.9135,119.1996L479.5385,120.1185L523.6917,119.9374L632.1583,119.6246"/>
  </g>
  <g style="fill:#000000; fill-rule:nonzero">
   <ellipse  rx="7.6500" ry="7.6500" cx="171.9397" cy="176.8218"/>
  </g>
  <g style="fill:none; stroke:#000000; stroke-width:  0.9180; stroke-linecap:butt; stroke-linejoin:miter; stroke-dasharray:none">
   <ellipse  rx="7.6500" ry="7.6500" cx="171.9397" cy="176.8218"/>
  </g>
  <g style="fill:#000000; fill-rule:nonzero">
   <ellipse  rx="7.6500" ry="7.6500" cx="225.2784" cy="141.1130"/>
  </g>
  <g style="fill:none; stroke:#000000; stroke-width:  0.9180; stroke-linecap:butt; stroke-linejoin:miter; stroke-dasharray:none">
   <ellipse  rx="7.6500" ry="7.6500" cx="225.2784" cy="141.1130"/>
  </g>
  <g style="fill:#000000; fill-rule:nonzero">
   <ellipse  rx="7.6500" ry="7.6500" cx="310.3183" cy="121.6225"/>
  </g>
  <g style="fill:none; stroke:#000000; stroke-width:  0.9180; stroke-linecap:butt; stroke-linejoin:miter; stroke-dasharray:none">
   <ellipse  rx="7.6500" ry="7.6500" cx="310.3183" cy="121.6225"/>
  </g>
  <g style="fill:#000000; fill-rule:nonzero">
   <ellipse  rx="7.6500" ry="7.6500" cx="363.7776" cy="119.1757"/>
  </g>
  <g style="fill:none; stroke:#000000; stroke-width:  0.9180; stroke-linecap:butt; stroke-linejoin:miter; stroke-dasharray:none">
   <ellipse  rx="7.6500" ry="7.6500" cx="363.7776" cy="119.1757"/>
  </g>
  <g style="fill:#000000; fill-rule:nonzero">
   <ellipse  rx="7.6500" ry="7.6500" cx="416.9135" cy="119.1996"/>
  </g>
  <g style="fill:none; stroke:#000000; stroke-width:  0.9180; stroke-linecap:butt; stroke-linejoin:miter; stroke-dasharray:none">
   <ellipse  rx="7.6500" ry="7.6500" cx="416.9135" cy="119.1996"/>
  </g>
  <g style="fill:#000000; fill-rule:nonzero">
   <ellipse  rx="7.6500" ry="7.6500" cx="479.5385" cy="120.1185"/>
  </g>
  <g style="fill:none; stroke:#000000; stroke-width:  0.9180; stroke-linecap:butt; stroke-linejoin:miter; stroke-dasharray:none">
   <ellipse  rx="7.6500" ry="7.6500" cx="479.5385" cy="120.1185"/>
  </g>
  <g style="fill:#000000; fill-rule:nonzero">
   <ellipse  rx="7.6500" ry="7.6500" cx="523.6917" cy="119.9374"/>
  </g>
  <g style="fill:none; stroke:#000000; stroke-width:  0.9180; stroke-linecap:butt; stroke-linejoin:miter; stroke-dasharray:none">
   <ellipse  rx="7.6500" ry="7.6500" cx="523.6917" cy="119.9374"/>
  </g>
  <g style="fill:#000000; fill-rule:nonzero">
   <ellipse  rx="7.6500" ry="7.6500" cx="632.1583" cy="119.6246"/>
  </g>
  <g style="fill:none; stroke:#000000; stroke-width:  0.9180; stroke-linecap:butt; stroke-linejoin:miter; stroke-dasharray:none">
   <ellipse  rx="7.6500" ry="7.6500" cx="632.1583" cy="119.6246"/>
  </g>
  <g style="fill:none; stroke:#FF0000; stroke-width:  2.7540; stroke-linecap:butt; stroke-linejoin:miter; stroke-dasharray:none">
   <path d="M187.2823,581.4612L242.2901,387.9464L325.8425,247.6093L379.0092,186.1251L433.3595,160.3047L495.9403,141.1365L540.4751,133.0794L648.5072,124.2986"/>
  </g>
  <g style="fill:#FF0000; fill-rule:nonzero">
   <path  d="M242.2901,396.7799L234.6401,383.5297L249.9401,383.5297z"/>
  </g>
  <g style="fill:none; stroke:#FF0000; stroke-width:  0.9180; stroke-linecap:butt; stroke-linejoin:miter; stroke-dasharray:none">
   <path d="M242.2901,396.7799L234.6401,383.5297L249.9401,383.5297z"/>
  </g>
  <g style="fill:#FF0000; fill-rule:nonzero">
   <path  d="M325.8425,256.4427L318.1925,243.1925L333.4925,243.1925z"/>
  </g>
  <g style="fill:none; stroke:#FF0000; stroke-width:  0.9180; stroke-linecap:butt; stroke-linejoin:miter; stroke-dasharray:none">
   <path d="M325.8425,256.4427L318.1925,243.1925L333.4925,243.1925z"/>
  </g>
  <g style="fill:#FF0000; fill-rule:nonzero">
   <path  d="M379.0092,194.9586L371.3592,181.7084L386.6592,181.7084z"/>
  </g>
  <g style="fill:none; stroke:#FF0000; stroke-width:  0.9180; stroke-linecap:butt; stroke-linejoin:miter; stroke-dasharray:none">
   <path d="M379.0092,194.9586L371.3592,181.7084L386.6592,181.7084z"/>
  </g>
  <g style="fill:#FF0000; fill-rule:nonzero">
   <path  d="M433.3595,169.1381L425.7095,155.8880L441.0095,155.8880z"/>
  </g>
  <g style="fill:none; stroke:#FF0000; stroke-width:  0.9180; stroke-linecap:butt; stroke-linejoin:miter; stroke-dasharray:none">
   <path d="M433.3595,169.1381L425.7095,155.8880L441.0095,155.8880z"/>
  </g>
  <g style="fill:#FF0000; fill-rule:nonzero">
   <path  d="M495.9403,149.9699L488.2903,136.7197L503.5903,136.7197z"/>
  </g>
  <g style="fill:none; stroke:#FF0000; stroke-width:  0.9180; stroke-linecap:butt; stroke-linejoin:miter; stroke-dasharray:none">
   <path d="M495.9403,149.9699L488.2903,136.7197L503.5903,136.7197z"/>
  </g>
  <g style="fill:#FF0000; fill-rule:nonzero">
   <path  d="M540.4751,141.9128L532.8251,128.6627L548.1251,128.6627z"/>
  </g>
  <g style="fill:none; stroke:#FF0000; stroke-width:  0.9180; stroke-linecap:butt; stroke-linejoin:miter; stroke-dasharray:none">
   <path d="M540.4751,141.9128L532.8251,128.6627L548.1251,128.6627z"/>
  </g>
  <g style="fill:#FF0000; fill-rule:nonzero">
   <path  d="M648.5072,133.1321L640.8572,119.8819L656.1572,119.8819z"/>
  </g>
  <g style="fill:none; stroke:#FF0000; stroke-width:  0.9180; stroke-linecap:butt; stroke-linejoin:miter; stroke-dasharray:none">
   <path d="M648.5072,133.1321L640.8572,119.8819L656.1572,119.8819z"/>
  </g>
  <g style="fill:none; stroke:#0000FF; stroke-width:  2.7540; stroke-linecap:butt; stroke-linejoin:miter; stroke-dasharray:none">
   <path d="M203.5400,477.7966L258.4106,313.6661L343.0169,205.4177L399.5390,161.5158L452.3356,143.9967L511.5122,131.3453L558.7675,126.4622L669.8634,121.5033"/>
  </g>
  <g style="fill:#0000FF; fill-rule:nonzero">
   <path  d="M197.0375,471.2941L197.0375,484.2991L210.0425,484.2991L210.0425,471.2941z"/>
  </g>
  <g style="fill:none; stroke:#0000FF; stroke-width:  0.9180; stroke-linecap:butt; stroke-linejoin:miter; stroke-dasharray:none">
   <path d="M197.0375,471.2941L197.0375,484.2991L210.0425,484.2991L210.0425,471.2941z"/>
  </g>
  <g style="fill:#0000FF; fill-rule:nonzero">
   <path  d="M251.9081,307.1636L251.9081,320.1686L264.9131,320.1686L264.9131,307.1636z"/>
  </g>
  <g style="fill:none; stroke:#0000FF; stroke-width:  0.9180; stroke-linecap:butt; stroke-linejoin:miter; stroke-dasharray:none">
   <path d="M251.9081,307.1636L251.9081,320.1686L264.9131,320.1686L264.9131,307.1636z"/>
  </g>
  <g style="fill:#0000FF; fill-rule:nonzero">
   <path  d="M336.5144,198.9152L336.5144,211.9202L349.5194,211.9202L349.5194,198.9152z"/>
  </g>
  <g style="fill:none; stroke:#0000FF; stroke-width:  0.9180; stroke-linecap:butt; stroke-linejoin:miter; stroke-dasharray:none">
   <path d="M336.5144,198.9152L336.5144,211.9202L349.5194,211.9202L349.5194,198.9152z"/>
  </g>
  <g style="fill:#0000FF; fill-rule:nonzero">
   <path  d="M393.0365,155.0133L393.0365,168.0183L406.0415,168.0183L406.0415,155.0133z"/>
  </g>
  <g style="fill:none; stroke:#0000FF; stroke-width:  0.9180; stroke-linecap:butt; stroke-linejoin:miter; stroke-dasharray:none">
   <path d="M393.0365,155.0133L393.0365,168.0183L406.0415,168.0183L406.0415,155.0133z"/>
  </g>
  <g style="fill:#0000FF; fill-rule:nonzero">
   <path  d="M445.8331,137.4942L445.8331,150.4992L458.8381,150.4992L458.8381,137.4942z"/>
  </g>
  <g style="fill:none; stroke:#0000FF; stroke-width:  0.9180; stroke-linecap:butt; stroke-linejoin:miter; stroke-dasharray:none">
   <path d="M445.8331,137.4942L445.8331,150.4992L458.8381,150.4992L458.8381,137.4942z"/>
  </g>
  <g style="fill:#0000FF; fill-rule:nonzero">
   <path  d="M505.0097,124.8428L505.0097,137.8478L518.0147,137.8478L518.0147,124.8428z"/>
  </g>
  <g style="fill:none; stroke:#0000FF; stroke-width:  0.9180; stroke-linecap:butt; stroke-linejoin:miter; stroke-dasharray:none">
   <path d="M505.0097,124.8428L505.0097,137.8478L518.0147,137.8478L518.0147,124.8428z"/>
  </g>
  <g style="fill:#0000FF; fill-rule:nonzero">
   <path  d="M552.2650,119.9597L552.2650,132.9647L565.2700,132.9647L565.2700,119.9597z"/>
  </g>
  <g style="fill:none; stroke:#0000FF; stroke-width:  0.9180; stroke-linecap:butt; stroke-linejoin:miter; stroke-dasharray:none">
   <path d="M552.2650,119.9597L552.2650,132.9647L565.2700,132.9647L565.2700,119.9597z"/>
  </g>
  <g style="fill:#0000FF; fill-rule:nonzero">
   <path  d="M663.3609,115.0008L663.3609,128.0058L676.3659,128.0058L676.3659,115.0008z"/>
  </g>
  <g style="fill:none; stroke:#0000FF; stroke-width:  0.9180; stroke-linecap:butt; stroke-linejoin:miter; stroke-dasharray:none">
   <path d="M663.3609,115.0008L663.3609,128.0058L676.3659,128.0058L676.3659,115.0008z"/>
  </g>
  <g style="fill:none; stroke:#000000; stroke-width:  2.7540; stroke-linecap:butt; stroke-linejoin:miter; stroke-dasharray:none">
   <path d="M734.4612,119.0000L122.3388,119.0000"/>
  </g>
  <g style="fill:none; stroke:#000000; stroke-width:  0.9180; stroke-linecap:butt; stroke-linejoin:miter; stroke-dasharray:none">
   <path d="M122.4000,61.2000L734.4000,61.2000"/>
   <path d="M122.4000,581.4000L734.4000,581.4000"/>
  </g>
  <g style="fill:none; stroke:#000000; stroke-width:  2.7540; stroke-linecap:butt; stroke-linejoin:miter; stroke-dasharray:none">
   <path d="M264.6297,61.2000L264.6297,67.3200"/>
   <path d="M264.6297,581.4000L264.6297,575.2800"/>
   <path d="M478.0032,61.2000L478.0032,67.3200"/>
   <path d="M478.0032,581.4000L478.0032,575.2800"/>
   <path d="M691.3767,61.2000L691.3767,67.3200"/>
   <path d="M691.3767,581.4000L691.3767,575.2800"/>
   <path d="M264.6297,61.2000L264.6297,73.4400"/>
   <path d="M264.6297,581.4000L264.6297,569.1600"/>
   <path d="M478.0032,61.2000L478.0032,73.4400"/>
   <path d="M478.0032,581.4000L478.0032,569.1600"/>
   <path d="M691.3767,61.2000L691.3767,73.4400"/>
   <path d="M691.3767,581.4000L691.3767,569.1600"/>
  </g>
  <g style="fill:#000000; fill-rule:nonzero">
   <text   style="font-family:'Times','Nimbus Roman No9 L'; font-style:normal; font-weight:bold; font-size:612.0000" transform="matrix(0.0490,0.0000,-0.0000,-0.0490,257.6297,34.0800)">1</text>
   <text   style="font-family:'Times','Nimbus Roman No9 L'; font-style:normal; font-weight:bold; font-size:612.0000" transform="matrix(0.0490,0.0000,-0.0000,-0.0490,470.5032,34.0800)">2</text>
   <text   style="font-family:'Times','Nimbus Roman No9 L'; font-style:normal; font-weight:bold; font-size:612.0000" transform="matrix(0.0490,0.0000,-0.0000,-0.0490,684.3767,34.0800)">4</text>
   <text   style="font-family:'Times','Nimbus Roman No9 L'; font-style:normal; font-weight:bold; font-size:612.0000" transform="matrix(0.0490,0.0000,-0.0000,-0.0490,313.9000,6.9600)">Time/SCF step (s)</text>
  </g>
  <g style="fill:none; stroke:#000000; stroke-width:  0.9180; stroke-linecap:butt; stroke-linejoin:miter; stroke-dasharray:none">
   <path d="M122.4000,61.2000L122.4000,581.4000"/>
   <path d="M734.4000,61.2000L734.4000,581.4000"/>
  </g>
  <g style="fill:none; stroke:#000000; stroke-width:  2.7540; stroke-linecap:butt; stroke-linejoin:miter; stroke-dasharray:none">
   <path d="M122.4000,61.2000L128.5200,61.2000"/>
   <path d="M734.4000,61.2000L728.2800,61.2000"/>
   <path d="M122.4000,176.8000L128.5200,176.8000"/>
   <path d="M734.4000,176.8000L728.2800,176.8000"/>
   <path d="M122.4000,292.4000L128.5200,292.4000"/>
   <path d="M734.4000,292.4000L728.2800,292.4000"/>
   <path d="M122.4000,408.0000L128.5200,408.0000"/>
   <path d="M734.4000,408.0000L728.2800,408.0000"/>
   <path d="M122.4000,523.6000L128.5200,523.6000"/>
   <path d="M734.4000,523.6000L728.2800,523.6000"/>
   <path d="M122.4000,119.0000L134.6400,119.0000"/>
   <path d="M734.4000,119.0000L722.1600,119.0000"/>
   <path d="M122.4000,234.6000L134.6400,234.6000"/>
   <path d="M734.4000,234.6000L722.1600,234.6000"/>
   <path d="M122.4000,350.2000L134.6400,350.2000"/>
   <path d="M734.4000,350.2000L722.1600,350.2000"/>
   <path d="M122.4000,465.8000L134.6400,465.8000"/>
   <path d="M734.4000,465.8000L722.1600,465.8000"/>
   <path d="M122.4000,581.4000L134.6400,581.4000"/>
   <path d="M734.4000,581.4000L722.1600,581.4000"/>
  </g>
  <g style="fill:#000000; fill-rule:nonzero">
   <text   style="font-family:'Times','Nimbus Roman No9 L'; font-style:normal; font-weight:bold; font-size:612.0000" transform="matrix(0.0490,0.0000,-0.0000,-0.0490,41.2800,109.0000)">0e+00</text>
   <text   style="font-family:'Times','Nimbus Roman No9 L'; font-style:normal; font-weight:bold; font-size:612.0000" transform="matrix(0.0490,0.0000,-0.0000,-0.0490,48.2800,224.6000)">1e-02</text>
   <text   style="font-family:'Times','Nimbus Roman No9 L'; font-style:normal; font-weight:bold; font-size:612.0000" transform="matrix(0.0490,0.0000,-0.0000,-0.0490,48.2800,340.2000)">2e-02</text>
   <text   style="font-family:'Times','Nimbus Roman No9 L'; font-style:normal; font-weight:bold; font-size:612.0000" transform="matrix(0.0490,0.0000,-0.0000,-0.0490,48.2800,455.8000)">3e-02</text>
   <text   style="font-family:'Times','Nimbus Roman No9 L'; font-style:normal; font-weight:bold; font-size:612.0000" transform="matrix(0.0490,0.0000,-0.0000,-0.0490,48.2800,571.4000)">4e-02</text>
   <text   style="font-family:'Symbol','Standard Symbols L'; font-style:normal; font-weight:normal; font-size:612.0000" transform="matrix(0.0000,0.0490,0.0490,-0.0000,29.1600,230.8000)">DE</text>
   <text   style="font-family:'Times','Nimbus Roman No9 L'; font-style:normal; font-weight:bold; font-size:612.0000" transform="matrix(0.0000,0.0490,0.0490,-0.0000,29.1600,267.8000)">  (Ry/atom)</text>
  </g>
  <g style="fill:none; stroke:#000000; stroke-width:  2.7540; stroke-linecap:butt; stroke-linejoin:miter; stroke-dasharray:none">
   <path d="M122.4000,61.2000L122.4000,581.4000L734.4000,581.4000L734.4000,61.2000z"/>
  </g>
  <g style="fill:#FFFFFF; fill-rule:nonzero">
   <path  d="M489.6000,532.4400L489.6000,441.9600L668.1990,441.9600L668.1990,532.4400z"/>
  </g>
  <g style="fill:none; stroke:#000000; stroke-width:  2.7540; stroke-linecap:butt; stroke-linejoin:miter; stroke-dasharray:none">
   <path d="M489.6000,532.4400L489.6000,441.9600L668.1990,441.9600L668.1990,532.4400z"/>
  </g>
  <g style="fill:#000000; fill-rule:nonzero">
   <text   style="font-family:'Times','Nimbus Roman No9 L'; font-style:normal; font-weight:bold; font-size:612.0000" transform="matrix(0.0490,0.0000,-0.0000,-0.0490,542.0790,505.3200)">8th AFD</text>
  </g>
  <g style="fill:none; stroke:#000000; stroke-width:  2.7540; stroke-linecap:butt; stroke-linejoin:miter; stroke-dasharray:none">
   <path d="M503.8290,515.3200L528.3090,515.3200"/>
  </g>
  <g style="fill:#000000; fill-rule:nonzero">
   <ellipse  rx="7.6500" ry="7.6500" cx="503.8290" cy="515.3200"/>
  </g>
  <g style="fill:none; stroke:#000000; stroke-width:  0.9180; stroke-linecap:butt; stroke-linejoin:miter; stroke-dasharray:none">
   <ellipse  rx="7.6500" ry="7.6500" cx="503.8290" cy="515.3200"/>
  </g>
  <g style="fill:#000000; fill-rule:nonzero">
   <ellipse  rx="7.6500" ry="7.6500" cx="528.3090" cy="515.3200"/>
  </g>
  <g style="fill:none; stroke:#000000; stroke-width:  0.9180; stroke-linecap:butt; stroke-linejoin:miter; stroke-dasharray:none">
   <ellipse  rx="7.6500" ry="7.6500" cx="528.3090" cy="515.3200"/>
  </g>
  <g style="fill:#000000; fill-rule:nonzero">
   <text   style="font-family:'Times','Nimbus Roman No9 L'; font-style:normal; font-weight:bold; font-size:612.0000" transform="matrix(0.0490,0.0000,-0.0000,-0.0490,542.0790,477.2000)">10th SFD</text>
  </g>
  <g style="fill:none; stroke:#FF0000; stroke-width:  2.7540; stroke-linecap:butt; stroke-linejoin:miter; stroke-dasharray:none">
   <path d="M503.8290,487.2000L528.3090,487.2000"/>
  </g>
  <g style="fill:#FF0000; fill-rule:nonzero">
   <path  d="M503.8290,496.0335L496.1790,482.7833L511.4790,482.7833z"/>
  </g>
  <g style="fill:none; stroke:#FF0000; stroke-width:  0.9180; stroke-linecap:butt; stroke-linejoin:miter; stroke-dasharray:none">
   <path d="M503.8290,496.0335L496.1790,482.7833L511.4790,482.7833z"/>
  </g>
  <g style="fill:#FF0000; fill-rule:nonzero">
   <path  d="M528.3090,496.0335L520.6590,482.7833L535.9590,482.7833z"/>
  </g>
  <g style="fill:none; stroke:#FF0000; stroke-width:  0.9180; stroke-linecap:butt; stroke-linejoin:miter; stroke-dasharray:none">
   <path d="M528.3090,496.0335L520.6590,482.7833L535.9590,482.7833z"/>
  </g>
  <g style="fill:#000000; fill-rule:nonzero">
   <text   style="font-family:'Times','Nimbus Roman No9 L'; font-style:normal; font-weight:bold; font-size:612.0000" transform="matrix(0.0490,0.0000,-0.0000,-0.0490,542.0790,449.0800)">12th SFD</text>
  </g>
  <g style="fill:none; stroke:#0000FF; stroke-width:  2.7540; stroke-linecap:butt; stroke-linejoin:miter; stroke-dasharray:none">
   <path d="M503.8290,459.0800L528.3090,459.0800"/>
  </g>
  <g style="fill:#0000FF; fill-rule:nonzero">
   <path  d="M497.3265,452.5775L497.3265,465.5825L510.3315,465.5825L510.3315,452.5775z"/>
  </g>
  <g style="fill:none; stroke:#0000FF; stroke-width:  0.9180; stroke-linecap:butt; stroke-linejoin:miter; stroke-dasharray:none">
   <path d="M497.3265,452.5775L497.3265,465.5825L510.3315,465.5825L510.3315,452.5775z"/>
  </g>
  <g style="fill:#0000FF; fill-rule:nonzero">
   <path  d="M521.8065,452.5775L521.8065,465.5825L534.8115,465.5825L534.8115,452.5775z"/>
  </g>
  <g style="fill:none; stroke:#0000FF; stroke-width:  0.9180; stroke-linecap:butt; stroke-linejoin:miter; stroke-dasharray:none">
   <path d="M521.8065,452.5775L521.8065,465.5825L534.8115,465.5825L534.8115,452.5775z"/>
  </g>
 </g>
</svg>
