<?xml version="1.0" encoding="ISO-8859-1"?>
<!DOCTYPE svg PUBLIC "-//W3C//DTD SVG 1.0//EN" "http://www.w3.org/TR/2001/REC-SVG-20010904/DTD/svg10.dtd">
<!-- generated by Grace-5.1.25 -->
<svg xml:space="preserve" width="11.0000in" height="8.5000in" viewBox="0.0000 0.0000 792.0000 612.0000">
 <g transform="translate(0,612.0000) scale(1,-1)">
  <g style="fill:#FFFFFF; fill-rule:nonzero">
   <path  d="M0.0000,0.0000L0.0000,612.0000L792.0000,612.0000L792.0000,0.0000z"/>
  </g>
  <g style="fill:none; stroke:#000000; stroke-width:  2.7540; stroke-linecap:butt; stroke-linejoin:miter; stroke-dasharray:none">
   <path d="M202.2719,392.6111L233.9558,237.3418L303.4584,150.7513L378.4721,126.8104L423.0460,121.7440L512.9900,121.2270L561.0277,121.2353L717.4104,120.7696"/>
  </g>
  <g style="fill:#000000; fill-rule:nonzero">
   <path  d="M196.1519,396.1445L202.2719,385.5444L208.3919,396.1445z"/>
  </g>
  <g style="fill:none; stroke:#000000; stroke-width:  0.9180; stroke-linecap:butt; stroke-linejoin:miter; stroke-dasharray:none">
   <path d="M196.1519,396.1445L202.2719,385.5444L208.3919,396.1445z"/>
  </g>
  <g style="fill:#000000; fill-rule:nonzero">
   <path  d="M227.8358,240.8752L233.9558,230.2751L240.0758,240.8752z"/>
  </g>
  <g style="fill:none; stroke:#000000; stroke-width:  0.9180; stroke-linecap:butt; stroke-linejoin:miter; stroke-dasharray:none">
   <path d="M227.8358,240.8752L233.9558,230.2751L240.0758,240.8752z"/>
  </g>
  <g style="fill:#000000; fill-rule:nonzero">
   <path  d="M297.3384,154.2847L303.4584,143.6845L309.5784,154.2847z"/>
  </g>
  <g style="fill:none; stroke:#000000; stroke-width:  0.9180; stroke-linecap:butt; stroke-linejoin:miter; stroke-dasharray:none">
   <path d="M297.3384,154.2847L303.4584,143.6845L309.5784,154.2847z"/>
  </g>
  <g style="fill:#000000; fill-rule:nonzero">
   <path  d="M372.3521,130.3438L378.4721,119.7437L384.5921,130.3438z"/>
  </g>
  <g style="fill:none; stroke:#000000; stroke-width:  0.9180; stroke-linecap:butt; stroke-linejoin:miter; stroke-dasharray:none">
   <path d="M372.3521,130.3438L378.4721,119.7437L384.5921,130.3438z"/>
  </g>
  <g style="fill:#000000; fill-rule:nonzero">
   <path  d="M416.9260,125.2774L423.0460,114.6772L429.1660,125.2774z"/>
  </g>
  <g style="fill:none; stroke:#000000; stroke-width:  0.9180; stroke-linecap:butt; stroke-linejoin:miter; stroke-dasharray:none">
   <path d="M416.9260,125.2774L423.0460,114.6772L429.1660,125.2774z"/>
  </g>
  <g style="fill:#000000; fill-rule:nonzero">
   <path  d="M506.8700,124.7604L512.9900,114.1603L519.1100,124.7604z"/>
  </g>
  <g style="fill:none; stroke:#000000; stroke-width:  0.9180; stroke-linecap:butt; stroke-linejoin:miter; stroke-dasharray:none">
   <path d="M506.8700,124.7604L512.9900,114.1603L519.1100,124.7604z"/>
  </g>
  <g style="fill:#000000; fill-rule:nonzero">
   <path  d="M554.9077,124.7687L561.0277,114.1686L567.1477,124.7687z"/>
  </g>
  <g style="fill:none; stroke:#000000; stroke-width:  0.9180; stroke-linecap:butt; stroke-linejoin:miter; stroke-dasharray:none">
   <path d="M554.9077,124.7687L561.0277,114.1686L567.1477,124.7687z"/>
  </g>
  <g style="fill:#000000; fill-rule:nonzero">
   <path  d="M711.2904,124.3030L717.4104,113.7029L723.5304,124.3030z"/>
  </g>
  <g style="fill:none; stroke:#000000; stroke-width:  0.9180; stroke-linecap:butt; stroke-linejoin:miter; stroke-dasharray:none">
   <path d="M711.2904,124.3030L717.4104,113.7029L723.5304,124.3030z"/>
  </g>
  <g style="fill:none; stroke:#FFFFFF; stroke-width:  2.7540; stroke-linecap:butt; stroke-linejoin:miter; stroke-dasharray:none">
   <path d="M202.2719,374.6441L233.9558,232.9849L303.4584,153.3001L378.4721,130.3331L423.0460,124.8155L512.9900,120.3164L561.0277,119.7729L717.4104,119.8234"/>
  </g>
  <g style="fill:#FFFFFF; fill-rule:nonzero">
   <ellipse  rx="6.1200" ry="6.1200" cx="202.2719" cy="374.6441"/>
  </g>
  <g style="fill:none; stroke:#FFFFFF; stroke-width:  0.9180; stroke-linecap:butt; stroke-linejoin:miter; stroke-dasharray:none">
   <ellipse  rx="6.1200" ry="6.1200" cx="202.2719" cy="374.6441"/>
  </g>
  <g style="fill:#FFFFFF; fill-rule:nonzero">
   <ellipse  rx="6.1200" ry="6.1200" cx="233.9558" cy="232.9849"/>
  </g>
  <g style="fill:none; stroke:#FFFFFF; stroke-width:  0.9180; stroke-linecap:butt; stroke-linejoin:miter; stroke-dasharray:none">
   <ellipse  rx="6.1200" ry="6.1200" cx="233.9558" cy="232.9849"/>
  </g>
  <g style="fill:#FFFFFF; fill-rule:nonzero">
   <ellipse  rx="6.1200" ry="6.1200" cx="303.4584" cy="153.3001"/>
  </g>
  <g style="fill:none; stroke:#FFFFFF; stroke-width:  0.9180; stroke-linecap:butt; stroke-linejoin:miter; stroke-dasharray:none">
   <ellipse  rx="6.1200" ry="6.1200" cx="303.4584" cy="153.3001"/>
  </g>
  <g style="fill:#FFFFFF; fill-rule:nonzero">
   <ellipse  rx="6.1200" ry="6.1200" cx="378.4721" cy="130.3331"/>
  </g>
  <g style="fill:none; stroke:#FFFFFF; stroke-width:  0.9180; stroke-linecap:butt; stroke-linejoin:miter; stroke-dasharray:none">
   <ellipse  rx="6.1200" ry="6.1200" cx="378.4721" cy="130.3331"/>
  </g>
  <g style="fill:#FFFFFF; fill-rule:nonzero">
   <ellipse  rx="6.1200" ry="6.1200" cx="423.0460" cy="124.8155"/>
  </g>
  <g style="fill:none; stroke:#FFFFFF; stroke-width:  0.9180; stroke-linecap:butt; stroke-linejoin:miter; stroke-dasharray:none">
   <ellipse  rx="6.1200" ry="6.1200" cx="423.0460" cy="124.8155"/>
  </g>
  <g style="fill:#FFFFFF; fill-rule:nonzero">
   <ellipse  rx="6.1200" ry="6.1200" cx="512.9900" cy="120.3164"/>
  </g>
  <g style="fill:none; stroke:#FFFFFF; stroke-width:  0.9180; stroke-linecap:butt; stroke-linejoin:miter; stroke-dasharray:none">
   <ellipse  rx="6.1200" ry="6.1200" cx="512.9900" cy="120.3164"/>
  </g>
  <g style="fill:#FFFFFF; fill-rule:nonzero">
   <ellipse  rx="6.1200" ry="6.1200" cx="561.0277" cy="119.7729"/>
  </g>
  <g style="fill:none; stroke:#FFFFFF; stroke-width:  0.9180; stroke-linecap:butt; stroke-linejoin:miter; stroke-dasharray:none">
   <ellipse  rx="6.1200" ry="6.1200" cx="561.0277" cy="119.7729"/>
  </g>
  <g style="fill:#FFFFFF; fill-rule:nonzero">
   <ellipse  rx="6.1200" ry="6.1200" cx="717.4104" cy="119.8234"/>
  </g>
  <g style="fill:none; stroke:#FFFFFF; stroke-width:  0.9180; stroke-linecap:butt; stroke-linejoin:miter; stroke-dasharray:none">
   <ellipse  rx="6.1200" ry="6.1200" cx="717.4104" cy="119.8234"/>
  </g>
  <g style="fill:none; stroke:#FF0000; stroke-width:  2.7540; stroke-linecap:butt; stroke-linejoin:miter; stroke-dasharray:none">
   <path d="M265.9943,581.4612L303.4584,403.0437L378.4721,260.4739L423.0460,204.5117L512.9900,164.3385L561.0277,147.9032L717.4104,130.2516"/>
  </g>
  <g style="fill:#FF0000; fill-rule:nonzero">
   <path  d="M303.4584,410.1105L297.3384,399.5103L309.5784,399.5103z"/>
  </g>
  <g style="fill:none; stroke:#FF0000; stroke-width:  0.9180; stroke-linecap:butt; stroke-linejoin:miter; stroke-dasharray:none">
   <path d="M303.4584,410.1105L297.3384,399.5103L309.5784,399.5103z"/>
  </g>
  <g style="fill:#FF0000; fill-rule:nonzero">
   <path  d="M378.4721,267.5406L372.3521,256.9405L384.5921,256.9405z"/>
  </g>
  <g style="fill:none; stroke:#FF0000; stroke-width:  0.9180; stroke-linecap:butt; stroke-linejoin:miter; stroke-dasharray:none">
   <path d="M378.4721,267.5406L372.3521,256.9405L384.5921,256.9405z"/>
  </g>
  <g style="fill:#FF0000; fill-rule:nonzero">
   <path  d="M423.0460,211.5785L416.9260,200.9783L429.1660,200.9783z"/>
  </g>
  <g style="fill:none; stroke:#FF0000; stroke-width:  0.9180; stroke-linecap:butt; stroke-linejoin:miter; stroke-dasharray:none">
   <path d="M423.0460,211.5785L416.9260,200.9783L429.1660,200.9783z"/>
  </g>
  <g style="fill:#FF0000; fill-rule:nonzero">
   <path  d="M512.9900,171.4053L506.8700,160.8051L519.1100,160.8051z"/>
  </g>
  <g style="fill:none; stroke:#FF0000; stroke-width:  0.9180; stroke-linecap:butt; stroke-linejoin:miter; stroke-dasharray:none">
   <path d="M512.9900,171.4053L506.8700,160.8051L519.1100,160.8051z"/>
  </g>
  <g style="fill:#FF0000; fill-rule:nonzero">
   <path  d="M561.0277,154.9700L554.9077,144.3699L567.1477,144.3699z"/>
  </g>
  <g style="fill:none; stroke:#FF0000; stroke-width:  0.9180; stroke-linecap:butt; stroke-linejoin:miter; stroke-dasharray:none">
   <path d="M561.0277,154.9700L554.9077,144.3699L567.1477,144.3699z"/>
  </g>
  <g style="fill:#FF0000; fill-rule:nonzero">
   <path  d="M717.4104,137.3184L711.2904,126.7182L723.5304,126.7182z"/>
  </g>
  <g style="fill:none; stroke:#FF0000; stroke-width:  0.9180; stroke-linecap:butt; stroke-linejoin:miter; stroke-dasharray:none">
   <path d="M717.4104,137.3184L711.2904,126.7182L723.5304,126.7182z"/>
  </g>
  <g style="fill:none; stroke:#008B00; stroke-width:  2.7540; stroke-linecap:butt; stroke-linejoin:miter; stroke-dasharray:none">
   <path d="M234.3252,581.4612L303.4584,317.7736L378.4721,211.0189L423.0460,171.8081L512.9900,144.7301L561.0277,134.6596L717.4104,124.6622"/>
  </g>
  <g style="fill:#008B00; fill-rule:nonzero">
   <path  d="M298.2564,312.5716L298.2564,322.9756L308.6604,322.9756L308.6604,312.5716z"/>
  </g>
  <g style="fill:none; stroke:#008B00; stroke-width:  0.9180; stroke-linecap:butt; stroke-linejoin:miter; stroke-dasharray:none">
   <path d="M298.2564,312.5716L298.2564,322.9756L308.6604,322.9756L308.6604,312.5716z"/>
  </g>
  <g style="fill:#008B00; fill-rule:nonzero">
   <path  d="M373.2701,205.8169L373.2701,216.2209L383.6741,216.2209L383.6741,205.8169z"/>
  </g>
  <g style="fill:none; stroke:#008B00; stroke-width:  0.9180; stroke-linecap:butt; stroke-linejoin:miter; stroke-dasharray:none">
   <path d="M373.2701,205.8169L373.2701,216.2209L383.6741,216.2209L383.6741,205.8169z"/>
  </g>
  <g style="fill:#008B00; fill-rule:nonzero">
   <path  d="M417.8440,166.6061L417.8440,177.0101L428.2480,177.0101L428.2480,166.6061z"/>
  </g>
  <g style="fill:none; stroke:#008B00; stroke-width:  0.9180; stroke-linecap:butt; stroke-linejoin:miter; stroke-dasharray:none">
   <path d="M417.8440,166.6061L417.8440,177.0101L428.2480,177.0101L428.2480,166.6061z"/>
  </g>
  <g style="fill:#008B00; fill-rule:nonzero">
   <path  d="M507.7880,139.5281L507.7880,149.9321L518.1920,149.9321L518.1920,139.5281z"/>
  </g>
  <g style="fill:none; stroke:#008B00; stroke-width:  0.9180; stroke-linecap:butt; stroke-linejoin:miter; stroke-dasharray:none">
   <path d="M507.7880,139.5281L507.7880,149.9321L518.1920,149.9321L518.1920,139.5281z"/>
  </g>
  <g style="fill:#008B00; fill-rule:nonzero">
   <path  d="M555.8257,129.4576L555.8257,139.8616L566.2297,139.8616L566.2297,129.4576z"/>
  </g>
  <g style="fill:none; stroke:#008B00; stroke-width:  0.9180; stroke-linecap:butt; stroke-linejoin:miter; stroke-dasharray:none">
   <path d="M555.8257,129.4576L555.8257,139.8616L566.2297,139.8616L566.2297,129.4576z"/>
  </g>
  <g style="fill:#008B00; fill-rule:nonzero">
   <path  d="M712.2084,119.4602L712.2084,129.8642L722.6124,129.8642L722.6124,119.4602z"/>
  </g>
  <g style="fill:none; stroke:#008B00; stroke-width:  0.9180; stroke-linecap:butt; stroke-linejoin:miter; stroke-dasharray:none">
   <path d="M712.2084,119.4602L712.2084,129.8642L722.6124,129.8642L722.6124,119.4602z"/>
  </g>
  <g style="fill:none; stroke:#FFFFFF; stroke-width:  2.7540; stroke-linecap:butt; stroke-linejoin:miter; stroke-dasharray:none">
   <path d="M224.1474,581.4612L233.9558,471.4546L303.4584,254.5088L378.4721,174.1170L423.0460,147.3008L512.9900,129.9496L561.0277,124.6174L717.4104,120.3333"/>
  </g>
  <g style="fill:#FFFFFF; fill-rule:nonzero">
   <path  d="M233.9558,479.1046L226.3058,471.4546L233.9558,463.8046L241.6058,471.4546z"/>
  </g>
  <g style="fill:none; stroke:#FFFFFF; stroke-width:  0.9180; stroke-linecap:butt; stroke-linejoin:miter; stroke-dasharray:none">
   <path d="M233.9558,479.1046L226.3058,471.4546L233.9558,463.8046L241.6058,471.4546z"/>
  </g>
  <g style="fill:#FFFFFF; fill-rule:nonzero">
   <path  d="M303.4584,262.1588L295.8084,254.5088L303.4584,246.8588L311.1084,254.5088z"/>
  </g>
  <g style="fill:none; stroke:#FFFFFF; stroke-width:  0.9180; stroke-linecap:butt; stroke-linejoin:miter; stroke-dasharray:none">
   <path d="M303.4584,262.1588L295.8084,254.5088L303.4584,246.8588L311.1084,254.5088z"/>
  </g>
  <g style="fill:#FFFFFF; fill-rule:nonzero">
   <path  d="M378.4721,181.7670L370.8221,174.1170L378.4721,166.4670L386.1221,174.1170z"/>
  </g>
  <g style="fill:none; stroke:#FFFFFF; stroke-width:  0.9180; stroke-linecap:butt; stroke-linejoin:miter; stroke-dasharray:none">
   <path d="M378.4721,181.7670L370.8221,174.1170L378.4721,166.4670L386.1221,174.1170z"/>
  </g>
  <g style="fill:#FFFFFF; fill-rule:nonzero">
   <path  d="M423.0460,154.9508L415.3960,147.3008L423.0460,139.6508L430.6960,147.3008z"/>
  </g>
  <g style="fill:none; stroke:#FFFFFF; stroke-width:  0.9180; stroke-linecap:butt; stroke-linejoin:miter; stroke-dasharray:none">
   <path d="M423.0460,154.9508L415.3960,147.3008L423.0460,139.6508L430.6960,147.3008z"/>
  </g>
  <g style="fill:#FFFFFF; fill-rule:nonzero">
   <path  d="M512.9900,137.5996L505.3400,129.9496L512.9900,122.2996L520.6400,129.9496z"/>
  </g>
  <g style="fill:none; stroke:#FFFFFF; stroke-width:  0.9180; stroke-linecap:butt; stroke-linejoin:miter; stroke-dasharray:none">
   <path d="M512.9900,137.5996L505.3400,129.9496L512.9900,122.2996L520.6400,129.9496z"/>
  </g>
  <g style="fill:#FFFFFF; fill-rule:nonzero">
   <path  d="M561.0277,132.2674L553.3777,124.6174L561.0277,116.9674L568.6777,124.6174z"/>
  </g>
  <g style="fill:none; stroke:#FFFFFF; stroke-width:  0.9180; stroke-linecap:butt; stroke-linejoin:miter; stroke-dasharray:none">
   <path d="M561.0277,132.2674L553.3777,124.6174L561.0277,116.9674L568.6777,124.6174z"/>
  </g>
  <g style="fill:#FFFFFF; fill-rule:nonzero">
   <path  d="M717.4104,127.9833L709.7604,120.3333L717.4104,112.6833L725.0604,120.3333z"/>
  </g>
  <g style="fill:none; stroke:#FFFFFF; stroke-width:  0.9180; stroke-linecap:butt; stroke-linejoin:miter; stroke-dasharray:none">
   <path d="M717.4104,127.9833L709.7604,120.3333L717.4104,112.6833L725.0604,120.3333z"/>
  </g>
  <g style="fill:none; stroke:#000000; stroke-width:  2.7540; stroke-linecap:butt; stroke-linejoin:miter; stroke-dasharray:none">
   <path d="M765.0612,119.6182L110.0988,119.6182"/>
  </g>
  <g style="fill:none; stroke:#000000; stroke-width:  0.9180; stroke-linecap:butt; stroke-linejoin:miter; stroke-dasharray:none">
   <path d="M110.1600,73.4400L765.0000,73.4400"/>
   <path d="M110.1600,581.4000L765.0000,581.4000"/>
  </g>
  <g style="fill:none; stroke:#000000; stroke-width:  2.7540; stroke-linecap:butt; stroke-linejoin:miter; stroke-dasharray:none">
   <path d="M144.6253,73.4400L144.6253,85.6800"/>
   <path d="M144.6253,581.4000L144.6253,569.1600"/>
   <path d="M316.9516,73.4400L316.9516,85.6800"/>
   <path d="M316.9516,581.4000L316.9516,569.1600"/>
   <path d="M489.2779,73.4400L489.2779,85.6800"/>
   <path d="M489.2779,581.4000L489.2779,569.1600"/>
   <path d="M661.6042,73.4400L661.6042,85.6800"/>
   <path d="M661.6042,581.4000L661.6042,569.1600"/>
  </g>
  <g style="fill:#000000; fill-rule:nonzero">
   <text   style="font-family:'Times','Nimbus Roman No9 L'; font-style:normal; font-weight:bold; font-size:612.0000" transform="matrix(0.0490,0.0000,-0.0000,-0.0490,129.6253,46.3200)">50</text>
   <text   style="font-family:'Times','Nimbus Roman No9 L'; font-style:normal; font-weight:bold; font-size:612.0000" transform="matrix(0.0490,0.0000,-0.0000,-0.0490,294.4516,46.3200)">100</text>
   <text   style="font-family:'Times','Nimbus Roman No9 L'; font-style:normal; font-weight:bold; font-size:612.0000" transform="matrix(0.0490,0.0000,-0.0000,-0.0490,466.7779,46.3200)">150</text>
   <text   style="font-family:'Times','Nimbus Roman No9 L'; font-style:normal; font-weight:bold; font-size:612.0000" transform="matrix(0.0490,0.0000,-0.0000,-0.0490,639.1042,46.3200)">200</text>
   <text   style="font-family:'Times','Nimbus Roman No9 L'; font-style:normal; font-weight:bold; font-size:612.0000" transform="matrix(0.0490,0.0000,-0.0000,-0.0490,318.0800,18.2000)">Energy cutoff (Ry)</text>
  </g>
  <g style="fill:none; stroke:#000000; stroke-width:  0.9180; stroke-linecap:butt; stroke-linejoin:miter; stroke-dasharray:none">
   <path d="M110.1600,73.4400L110.1600,581.4000"/>
   <path d="M765.0000,73.4400L765.0000,581.4000"/>
  </g>
  <g style="fill:none; stroke:#000000; stroke-width:  2.7540; stroke-linecap:butt; stroke-linejoin:miter; stroke-dasharray:none">
   <path d="M110.1600,119.6182L122.4000,119.6182"/>
   <path d="M765.0000,119.6182L752.7600,119.6182"/>
   <path d="M110.1600,304.3309L122.4000,304.3309"/>
   <path d="M765.0000,304.3309L752.7600,304.3309"/>
   <path d="M110.1600,489.0436L122.4000,489.0436"/>
   <path d="M765.0000,489.0436L752.7600,489.0436"/>
  </g>
  <g style="fill:#000000; fill-rule:nonzero">
   <text   style="font-family:'Times','Nimbus Roman No9 L'; font-style:normal; font-weight:bold; font-size:612.0000" transform="matrix(0.0490,0.0000,-0.0000,-0.0490,89.0400,109.6182)">0</text>
   <text   style="font-family:'Times','Nimbus Roman No9 L'; font-style:normal; font-weight:bold; font-size:612.0000" transform="matrix(0.0490,0.0000,-0.0000,-0.0490,37.0400,294.3309)">0.008</text>
   <text   style="font-family:'Times','Nimbus Roman No9 L'; font-style:normal; font-weight:bold; font-size:612.0000" transform="matrix(0.0490,0.0000,-0.0000,-0.0490,37.0400,479.0436)">0.016</text>
   <text   style="font-family:'Symbol','Standard Symbols L'; font-style:normal; font-weight:normal; font-size:612.0000" transform="matrix(0.0000,0.0490,0.0490,-0.0000,24.9200,236.9200)">DE</text>
   <text   style="font-family:'Times','Nimbus Roman No9 L'; font-style:normal; font-weight:bold; font-size:612.0000" transform="matrix(0.0000,0.0490,0.0490,-0.0000,24.9200,273.9200)">  (Ry/atom)</text>
  </g>
  <g style="fill:none; stroke:#000000; stroke-width:  2.7540; stroke-linecap:butt; stroke-linejoin:miter; stroke-dasharray:none">
   <path d="M110.1600,73.4400L110.1600,581.4000L765.0000,581.4000L765.0000,73.4400z"/>
  </g>
  <g style="fill:#FFFFFF; fill-rule:nonzero">
   <path  d="M422.2800,532.4400L422.2800,450.9600L582.3490,450.9600L582.3490,532.4400z"/>
  </g>
  <g style="fill:none; stroke:#000000; stroke-width:  2.7540; stroke-linecap:butt; stroke-linejoin:miter; stroke-dasharray:none">
   <path d="M422.2800,532.4400L422.2800,450.9600L582.3490,450.9600L582.3490,532.4400z"/>
  </g>
  <g style="fill:#000000; fill-rule:nonzero">
   <text   style="font-family:'Times','Nimbus Roman No9 L'; font-style:normal; font-weight:bold; font-size:612.0000" transform="matrix(0.0420,0.0000,-0.0000,-0.0420,473.2290,508.3200)">8th AFD</text>
  </g>
  <g style="fill:none; stroke:#000000; stroke-width:  2.7540; stroke-linecap:butt; stroke-linejoin:miter; stroke-dasharray:none">
   <path d="M434.9790,516.8200L459.4590,516.8200"/>
  </g>
  <g style="fill:#000000; fill-rule:nonzero">
   <path  d="M428.8590,520.3534L434.9790,509.7532L441.0990,520.3534z"/>
  </g>
  <g style="fill:none; stroke:#000000; stroke-width:  0.9180; stroke-linecap:butt; stroke-linejoin:miter; stroke-dasharray:none">
   <path d="M428.8590,520.3534L434.9790,509.7532L441.0990,520.3534z"/>
  </g>
  <g style="fill:#000000; fill-rule:nonzero">
   <path  d="M453.3390,520.3534L459.4590,509.7532L465.5790,520.3534z"/>
  </g>
  <g style="fill:none; stroke:#000000; stroke-width:  0.9180; stroke-linecap:butt; stroke-linejoin:miter; stroke-dasharray:none">
   <path d="M453.3390,520.3534L459.4590,509.7532L465.5790,520.3534z"/>
  </g>
  <g style="fill:#000000; fill-rule:nonzero">
   <text   style="font-family:'Times','Nimbus Roman No9 L'; font-style:normal; font-weight:bold; font-size:612.0000" transform="matrix(0.0420,0.0000,-0.0000,-0.0420,473.2290,483.2000)">10th SFD</text>
  </g>
  <g style="fill:none; stroke:#FF0000; stroke-width:  2.7540; stroke-linecap:butt; stroke-linejoin:miter; stroke-dasharray:none">
   <path d="M434.9790,491.7000L459.4590,491.7000"/>
  </g>
  <g style="fill:#FF0000; fill-rule:nonzero">
   <path  d="M434.9790,498.7668L428.8590,488.1666L441.0990,488.1666z"/>
  </g>
  <g style="fill:none; stroke:#FF0000; stroke-width:  0.9180; stroke-linecap:butt; stroke-linejoin:miter; stroke-dasharray:none">
   <path d="M434.9790,498.7668L428.8590,488.1666L441.0990,488.1666z"/>
  </g>
  <g style="fill:#FF0000; fill-rule:nonzero">
   <path  d="M459.4590,498.7668L453.3390,488.1666L465.5790,488.1666z"/>
  </g>
  <g style="fill:none; stroke:#FF0000; stroke-width:  0.9180; stroke-linecap:butt; stroke-linejoin:miter; stroke-dasharray:none">
   <path d="M459.4590,498.7668L453.3390,488.1666L465.5790,488.1666z"/>
  </g>
  <g style="fill:#000000; fill-rule:nonzero">
   <text   style="font-family:'Times','Nimbus Roman No9 L'; font-style:normal; font-weight:bold; font-size:612.0000" transform="matrix(0.0420,0.0000,-0.0000,-0.0420,473.2290,458.0800)">12th SFD</text>
  </g>
  <g style="fill:none; stroke:#008B00; stroke-width:  2.7540; stroke-linecap:butt; stroke-linejoin:miter; stroke-dasharray:none">
   <path d="M434.9790,466.5800L459.4590,466.5800"/>
  </g>
  <g style="fill:#008B00; fill-rule:nonzero">
   <path  d="M429.7770,461.3780L429.7770,471.7820L440.1810,471.7820L440.1810,461.3780z"/>
  </g>
  <g style="fill:none; stroke:#008B00; stroke-width:  0.9180; stroke-linecap:butt; stroke-linejoin:miter; stroke-dasharray:none">
   <path d="M429.7770,461.3780L429.7770,471.7820L440.1810,471.7820L440.1810,461.3780z"/>
  </g>
  <g style="fill:#008B00; fill-rule:nonzero">
   <path  d="M454.2570,461.3780L454.2570,471.7820L464.6610,471.7820L464.6610,461.3780z"/>
  </g>
  <g style="fill:none; stroke:#008B00; stroke-width:  0.9180; stroke-linecap:butt; stroke-linejoin:miter; stroke-dasharray:none">
   <path d="M454.2570,461.3780L454.2570,471.7820L464.6610,471.7820L464.6610,461.3780z"/>
  </g>
 </g>
</svg>
