<?xml version="1.0" encoding="ISO-8859-1"?>
<!DOCTYPE svg PUBLIC "-//W3C//DTD SVG 1.0//EN" "http://www.w3.org/TR/2001/REC-SVG-20010904/DTD/svg10.dtd">
<!-- generated by Grace-5.1.25 -->
<svg xml:space="preserve" width="11.0000in" height="8.5000in" viewBox="0.0000 0.0000 792.0000 612.0000">
 <g transform="translate(0,612.0000) scale(1,-1)">
  <g style="fill:#FFFFFF; fill-rule:nonzero">
   <path  d="M0.0000,0.0000L0.0000,612.0000L792.0000,612.0000L792.0000,0.0000z"/>
  </g>
  <g style="fill:none; stroke:#000000; stroke-width:  2.7540; stroke-linecap:butt; stroke-linejoin:miter; stroke-dasharray:none">
   <path d="M203.8876,217.9232L264.0074,140.5212L333.3768,135.5450L411.9958,129.8125L499.8644,125.5844L596.9826,123.2958L703.3486,122.1229"/>
  </g>
  <g style="fill:#000000; fill-rule:nonzero">
   <ellipse  rx="7.6500" ry="7.6500" cx="203.8876" cy="217.9232"/>
  </g>
  <g style="fill:none; stroke:#000000; stroke-width:  0.9180; stroke-linecap:butt; stroke-linejoin:miter; stroke-dasharray:none">
   <ellipse  rx="7.6500" ry="7.6500" cx="203.8876" cy="217.9232"/>
  </g>
  <g style="fill:#000000; fill-rule:nonzero">
   <ellipse  rx="7.6500" ry="7.6500" cx="264.0074" cy="140.5212"/>
  </g>
  <g style="fill:none; stroke:#000000; stroke-width:  0.9180; stroke-linecap:butt; stroke-linejoin:miter; stroke-dasharray:none">
   <ellipse  rx="7.6500" ry="7.6500" cx="264.0074" cy="140.5212"/>
  </g>
  <g style="fill:#000000; fill-rule:nonzero">
   <ellipse  rx="7.6500" ry="7.6500" cx="333.3768" cy="135.5450"/>
  </g>
  <g style="fill:none; stroke:#000000; stroke-width:  0.9180; stroke-linecap:butt; stroke-linejoin:miter; stroke-dasharray:none">
   <ellipse  rx="7.6500" ry="7.6500" cx="333.3768" cy="135.5450"/>
  </g>
  <g style="fill:#000000; fill-rule:nonzero">
   <ellipse  rx="7.6500" ry="7.6500" cx="411.9958" cy="129.8125"/>
  </g>
  <g style="fill:none; stroke:#000000; stroke-width:  0.9180; stroke-linecap:butt; stroke-linejoin:miter; stroke-dasharray:none">
   <ellipse  rx="7.6500" ry="7.6500" cx="411.9958" cy="129.8125"/>
  </g>
  <g style="fill:#000000; fill-rule:nonzero">
   <ellipse  rx="7.6500" ry="7.6500" cx="499.8644" cy="125.5844"/>
  </g>
  <g style="fill:none; stroke:#000000; stroke-width:  0.9180; stroke-linecap:butt; stroke-linejoin:miter; stroke-dasharray:none">
   <ellipse  rx="7.6500" ry="7.6500" cx="499.8644" cy="125.5844"/>
  </g>
  <g style="fill:#000000; fill-rule:nonzero">
   <ellipse  rx="7.6500" ry="7.6500" cx="596.9826" cy="123.2958"/>
  </g>
  <g style="fill:none; stroke:#000000; stroke-width:  0.9180; stroke-linecap:butt; stroke-linejoin:miter; stroke-dasharray:none">
   <ellipse  rx="7.6500" ry="7.6500" cx="596.9826" cy="123.2958"/>
  </g>
  <g style="fill:#000000; fill-rule:nonzero">
   <ellipse  rx="7.6500" ry="7.6500" cx="703.3486" cy="122.1229"/>
  </g>
  <g style="fill:none; stroke:#000000; stroke-width:  0.9180; stroke-linecap:butt; stroke-linejoin:miter; stroke-dasharray:none">
   <ellipse  rx="7.6500" ry="7.6500" cx="703.3486" cy="122.1229"/>
  </g>
  <g style="fill:none; stroke:#FF0000; stroke-width:  2.7540; stroke-linecap:butt; stroke-linejoin:miter; stroke-dasharray:none">
   <path d="M285.8025,581.4612L333.3768,298.0673L411.9958,178.4575L499.8644,140.6191L596.9826,127.3706L703.3486,122.3085"/>
  </g>
  <g style="fill:#FF0000; fill-rule:nonzero">
   <path  d="M333.3768,306.9008L325.7268,293.6506L341.0268,293.6506z"/>
  </g>
  <g style="fill:none; stroke:#FF0000; stroke-width:  0.9180; stroke-linecap:butt; stroke-linejoin:miter; stroke-dasharray:none">
   <path d="M333.3768,306.9008L325.7268,293.6506L341.0268,293.6506z"/>
  </g>
  <g style="fill:#FF0000; fill-rule:nonzero">
   <path  d="M411.9958,187.2910L404.3458,174.0408L419.6458,174.0408z"/>
  </g>
  <g style="fill:none; stroke:#FF0000; stroke-width:  0.9180; stroke-linecap:butt; stroke-linejoin:miter; stroke-dasharray:none">
   <path d="M411.9958,187.2910L404.3458,174.0408L419.6458,174.0408z"/>
  </g>
  <g style="fill:#FF0000; fill-rule:nonzero">
   <path  d="M499.8644,149.4526L492.2144,136.2024L507.5144,136.2024z"/>
  </g>
  <g style="fill:none; stroke:#FF0000; stroke-width:  0.9180; stroke-linecap:butt; stroke-linejoin:miter; stroke-dasharray:none">
   <path d="M499.8644,149.4526L492.2144,136.2024L507.5144,136.2024z"/>
  </g>
  <g style="fill:#FF0000; fill-rule:nonzero">
   <path  d="M596.9826,136.2040L589.3326,122.9538L604.6326,122.9538z"/>
  </g>
  <g style="fill:none; stroke:#FF0000; stroke-width:  0.9180; stroke-linecap:butt; stroke-linejoin:miter; stroke-dasharray:none">
   <path d="M596.9826,136.2040L589.3326,122.9538L604.6326,122.9538z"/>
  </g>
  <g style="fill:#FF0000; fill-rule:nonzero">
   <path  d="M703.3486,131.1420L695.6986,117.8918L710.9986,117.8918z"/>
  </g>
  <g style="fill:none; stroke:#FF0000; stroke-width:  0.9180; stroke-linecap:butt; stroke-linejoin:miter; stroke-dasharray:none">
   <path d="M703.3486,131.1420L695.6986,117.8918L710.9986,117.8918z"/>
  </g>
  <g style="fill:none; stroke:#0000FF; stroke-width:  2.7540; stroke-linecap:butt; stroke-linejoin:miter; stroke-dasharray:none">
   <path d="M245.2125,581.4612L264.0074,357.6353L333.3768,178.7022L411.9958,134.5282L499.8644,123.1647L596.9826,119.9424L703.3486,120.2887"/>
  </g>
  <g style="fill:#0000FF; fill-rule:nonzero">
   <path  d="M257.5049,351.1328L257.5049,364.1378L270.5099,364.1378L270.5099,351.1328z"/>
  </g>
  <g style="fill:none; stroke:#0000FF; stroke-width:  0.9180; stroke-linecap:butt; stroke-linejoin:miter; stroke-dasharray:none">
   <path d="M257.5049,351.1328L257.5049,364.1378L270.5099,364.1378L270.5099,351.1328z"/>
  </g>
  <g style="fill:#0000FF; fill-rule:nonzero">
   <path  d="M326.8743,172.1997L326.8743,185.2047L339.8793,185.2047L339.8793,172.1997z"/>
  </g>
  <g style="fill:none; stroke:#0000FF; stroke-width:  0.9180; stroke-linecap:butt; stroke-linejoin:miter; stroke-dasharray:none">
   <path d="M326.8743,172.1997L326.8743,185.2047L339.8793,185.2047L339.8793,172.1997z"/>
  </g>
  <g style="fill:#0000FF; fill-rule:nonzero">
   <path  d="M405.4933,128.0257L405.4933,141.0307L418.4983,141.0307L418.4983,128.0257z"/>
  </g>
  <g style="fill:none; stroke:#0000FF; stroke-width:  0.9180; stroke-linecap:butt; stroke-linejoin:miter; stroke-dasharray:none">
   <path d="M405.4933,128.0257L405.4933,141.0307L418.4983,141.0307L418.4983,128.0257z"/>
  </g>
  <g style="fill:#0000FF; fill-rule:nonzero">
   <path  d="M493.3619,116.6622L493.3619,129.6672L506.3669,129.6672L506.3669,116.6622z"/>
  </g>
  <g style="fill:none; stroke:#0000FF; stroke-width:  0.9180; stroke-linecap:butt; stroke-linejoin:miter; stroke-dasharray:none">
   <path d="M493.3619,116.6622L493.3619,129.6672L506.3669,129.6672L506.3669,116.6622z"/>
  </g>
  <g style="fill:#0000FF; fill-rule:nonzero">
   <path  d="M590.4801,113.4399L590.4801,126.4449L603.4851,126.4449L603.4851,113.4399z"/>
  </g>
  <g style="fill:none; stroke:#0000FF; stroke-width:  0.9180; stroke-linecap:butt; stroke-linejoin:miter; stroke-dasharray:none">
   <path d="M590.4801,113.4399L590.4801,126.4449L603.4851,126.4449L603.4851,113.4399z"/>
  </g>
  <g style="fill:#0000FF; fill-rule:nonzero">
   <path  d="M696.8461,113.7862L696.8461,126.7912L709.8511,126.7912L709.8511,113.7862z"/>
  </g>
  <g style="fill:none; stroke:#0000FF; stroke-width:  0.9180; stroke-linecap:butt; stroke-linejoin:miter; stroke-dasharray:none">
   <path d="M696.8461,113.7862L696.8461,126.7912L709.8511,126.7912L709.8511,113.7862z"/>
  </g>
  <g style="fill:none; stroke:#000000; stroke-width:  2.7540; stroke-linecap:butt; stroke-linejoin:miter; stroke-dasharray:none">
   <path d="M110.0988,119.6182L583.1000,119.6182"/>
  </g>
  <g style="fill:none; stroke:#000000; stroke-width:  0.9180; stroke-linecap:butt; stroke-linejoin:miter; stroke-dasharray:none">
   <path d="M110.1600,73.4400L765.0000,73.4400"/>
   <path d="M110.1600,581.4000L765.0000,581.4000"/>
  </g>
  <g style="fill:none; stroke:#000000; stroke-width:  2.7540; stroke-linecap:butt; stroke-linejoin:miter; stroke-dasharray:none">
   <path d="M219.3000,73.4400L219.3000,85.6800"/>
   <path d="M219.3000,581.4000L219.3000,569.1600"/>
   <path d="M401.2000,73.4400L401.2000,85.6800"/>
   <path d="M401.2000,581.4000L401.2000,569.1600"/>
   <path d="M583.1000,73.4400L583.1000,85.6800"/>
   <path d="M583.1000,581.4000L583.1000,569.1600"/>
   <path d="M765.0000,73.4400L765.0000,85.6800"/>
   <path d="M765.0000,581.4000L765.0000,569.1600"/>
  </g>
  <g style="fill:#000000; fill-rule:nonzero">
   <text   style="font-family:'Times','Nimbus Roman No9 L'; font-style:normal; font-weight:bold; font-size:612.0000" transform="matrix(0.0490,0.0000,-0.0000,-0.0490,196.8000,46.3200)">100</text>
   <text   style="font-family:'Times','Nimbus Roman No9 L'; font-style:normal; font-weight:bold; font-size:612.0000" transform="matrix(0.0490,0.0000,-0.0000,-0.0490,378.7000,46.3200)">200</text>
   <text   style="font-family:'Times','Nimbus Roman No9 L'; font-style:normal; font-weight:bold; font-size:612.0000" transform="matrix(0.0490,0.0000,-0.0000,-0.0490,560.6000,46.3200)">300</text>
   <text   style="font-family:'Times','Nimbus Roman No9 L'; font-style:normal; font-weight:bold; font-size:612.0000" transform="matrix(0.0490,0.0000,-0.0000,-0.0490,742.5000,46.3200)">400</text>
   <text   style="font-family:'Times','Nimbus Roman No9 L'; font-style:normal; font-weight:bold; font-size:612.0000" transform="matrix(0.0490,0.0000,-0.0000,-0.0490,318.0800,18.2000)">Energy cutoff (Ry)</text>
  </g>
  <g style="fill:none; stroke:#000000; stroke-width:  0.9180; stroke-linecap:butt; stroke-linejoin:miter; stroke-dasharray:none">
   <path d="M110.1600,73.4400L110.1600,581.4000"/>
   <path d="M765.0000,73.4400L765.0000,581.4000"/>
  </g>
  <g style="fill:none; stroke:#000000; stroke-width:  2.7540; stroke-linecap:butt; stroke-linejoin:miter; stroke-dasharray:none">
   <path d="M110.1600,119.6182L122.4000,119.6182"/>
   <path d="M765.0000,119.6182L752.7600,119.6182"/>
   <path d="M110.1600,304.3309L122.4000,304.3309"/>
   <path d="M765.0000,304.3309L752.7600,304.3309"/>
   <path d="M110.1600,489.0436L122.4000,489.0436"/>
   <path d="M765.0000,489.0436L752.7600,489.0436"/>
  </g>
  <g style="fill:#000000; fill-rule:nonzero">
   <text   style="font-family:'Times','Nimbus Roman No9 L'; font-style:normal; font-weight:bold; font-size:612.0000" transform="matrix(0.0490,0.0000,-0.0000,-0.0490,89.0400,109.6182)">0</text>
   <text   style="font-family:'Times','Nimbus Roman No9 L'; font-style:normal; font-weight:bold; font-size:612.0000" transform="matrix(0.0490,0.0000,-0.0000,-0.0490,37.0400,294.3309)">0.002</text>
   <text   style="font-family:'Times','Nimbus Roman No9 L'; font-style:normal; font-weight:bold; font-size:612.0000" transform="matrix(0.0490,0.0000,-0.0000,-0.0490,37.0400,479.0436)">0.004</text>
   <text   style="font-family:'Symbol','Standard Symbols L'; font-style:normal; font-weight:normal; font-size:612.0000" transform="matrix(0.0000,0.0490,0.0490,-0.0000,24.9200,236.9200)">DE</text>
   <text   style="font-family:'Times','Nimbus Roman No9 L'; font-style:normal; font-weight:bold; font-size:612.0000" transform="matrix(0.0000,0.0490,0.0490,-0.0000,24.9200,273.9200)">  (Ry/atom)</text>
  </g>
  <g style="fill:none; stroke:#000000; stroke-width:  2.7540; stroke-linecap:butt; stroke-linejoin:miter; stroke-dasharray:none">
   <path d="M110.1600,73.4400L110.1600,581.4000L765.0000,581.4000L765.0000,73.4400z"/>
  </g>
  <g style="fill:#FFFFFF; fill-rule:nonzero">
   <path  d="M520.2000,544.6800L520.2000,463.2000L681.7990,463.2000L681.7990,544.6800z"/>
  </g>
  <g style="fill:none; stroke:#000000; stroke-width:  2.7540; stroke-linecap:butt; stroke-linejoin:miter; stroke-dasharray:none">
   <path d="M520.2000,544.6800L520.2000,463.2000L681.7990,463.2000L681.7990,544.6800z"/>
  </g>
  <g style="fill:#000000; fill-rule:nonzero">
   <text   style="font-family:'Times','Nimbus Roman No9 L'; font-style:normal; font-weight:bold; font-size:612.0000" transform="matrix(0.0420,0.0000,-0.0000,-0.0420,572.6790,520.5600)">8th AFD</text>
  </g>
  <g style="fill:none; stroke:#000000; stroke-width:  2.7540; stroke-linecap:butt; stroke-linejoin:miter; stroke-dasharray:none">
   <path d="M534.4290,529.0600L558.9090,529.0600"/>
  </g>
  <g style="fill:#000000; fill-rule:nonzero">
   <ellipse  rx="7.6500" ry="7.6500" cx="534.4290" cy="529.0600"/>
  </g>
  <g style="fill:none; stroke:#000000; stroke-width:  0.9180; stroke-linecap:butt; stroke-linejoin:miter; stroke-dasharray:none">
   <ellipse  rx="7.6500" ry="7.6500" cx="534.4290" cy="529.0600"/>
  </g>
  <g style="fill:#000000; fill-rule:nonzero">
   <ellipse  rx="7.6500" ry="7.6500" cx="558.9090" cy="529.0600"/>
  </g>
  <g style="fill:none; stroke:#000000; stroke-width:  0.9180; stroke-linecap:butt; stroke-linejoin:miter; stroke-dasharray:none">
   <ellipse  rx="7.6500" ry="7.6500" cx="558.9090" cy="529.0600"/>
  </g>
  <g style="fill:#000000; fill-rule:nonzero">
   <text   style="font-family:'Times','Nimbus Roman No9 L'; font-style:normal; font-weight:bold; font-size:612.0000" transform="matrix(0.0420,0.0000,-0.0000,-0.0420,572.6790,495.4400)">10th SFD</text>
  </g>
  <g style="fill:none; stroke:#FF0000; stroke-width:  2.7540; stroke-linecap:butt; stroke-linejoin:miter; stroke-dasharray:none">
   <path d="M534.4290,503.9400L558.9090,503.9400"/>
  </g>
  <g style="fill:#FF0000; fill-rule:nonzero">
   <path  d="M534.4290,512.7735L526.7790,499.5233L542.0790,499.5233z"/>
  </g>
  <g style="fill:none; stroke:#FF0000; stroke-width:  0.9180; stroke-linecap:butt; stroke-linejoin:miter; stroke-dasharray:none">
   <path d="M534.4290,512.7735L526.7790,499.5233L542.0790,499.5233z"/>
  </g>
  <g style="fill:#FF0000; fill-rule:nonzero">
   <path  d="M558.9090,512.7735L551.2590,499.5233L566.5590,499.5233z"/>
  </g>
  <g style="fill:none; stroke:#FF0000; stroke-width:  0.9180; stroke-linecap:butt; stroke-linejoin:miter; stroke-dasharray:none">
   <path d="M558.9090,512.7735L551.2590,499.5233L566.5590,499.5233z"/>
  </g>
  <g style="fill:#000000; fill-rule:nonzero">
   <text   style="font-family:'Times','Nimbus Roman No9 L'; font-style:normal; font-weight:bold; font-size:612.0000" transform="matrix(0.0420,0.0000,-0.0000,-0.0420,572.6790,470.3200)">12th SFD</text>
  </g>
  <g style="fill:none; stroke:#0000FF; stroke-width:  2.7540; stroke-linecap:butt; stroke-linejoin:miter; stroke-dasharray:none">
   <path d="M534.4290,478.8200L558.9090,478.8200"/>
  </g>
  <g style="fill:#0000FF; fill-rule:nonzero">
   <path  d="M527.9265,472.3175L527.9265,485.3225L540.9315,485.3225L540.9315,472.3175z"/>
  </g>
  <g style="fill:none; stroke:#0000FF; stroke-width:  0.9180; stroke-linecap:butt; stroke-linejoin:miter; stroke-dasharray:none">
   <path d="M527.9265,472.3175L527.9265,485.3225L540.9315,485.3225L540.9315,472.3175z"/>
  </g>
  <g style="fill:#0000FF; fill-rule:nonzero">
   <path  d="M552.4065,472.3175L552.4065,485.3225L565.4115,485.3225L565.4115,472.3175z"/>
  </g>
  <g style="fill:none; stroke:#0000FF; stroke-width:  0.9180; stroke-linecap:butt; stroke-linejoin:miter; stroke-dasharray:none">
   <path d="M552.4065,472.3175L552.4065,485.3225L565.4115,485.3225L565.4115,472.3175z"/>
  </g>
  <g style="fill:#000000; fill-rule:nonzero">
   <text   style="font-family:'Times','Nimbus Roman No9 L'; font-style:normal; font-weight:bold; font-size:612.0000" transform="matrix(0.0840,0.0000,-0.0000,-0.0840,520.2000,410.0400)">NiO</text>
  </g>
 </g>
</svg>
