<?xml version="1.0" encoding="ISO-8859-1"?>
<!DOCTYPE svg PUBLIC "-//W3C//DTD SVG 1.0//EN" "http://www.w3.org/TR/2001/REC-SVG-20010904/DTD/svg10.dtd">
<!-- generated by Grace-5.1.25 -->
<svg xml:space="preserve" width="11.0000in" height="8.5000in" viewBox="0.0000 0.0000 792.0000 612.0000">
 <g transform="translate(0,612.0000) scale(1,-1)">
  <g style="fill:#FFFFFF; fill-rule:nonzero">
   <path  d="M0.0000,0.0000L0.0000,612.0000L792.0000,612.0000L792.0000,0.0000z"/>
  </g>
  <g style="fill:none; stroke:#000000; stroke-width:  2.7540; stroke-linecap:butt; stroke-linejoin:miter; stroke-dasharray:none">
   <path d="M204.0055,210.2627L267.1389,178.2416L336.2866,171.0881L411.4450,154.2325L492.6176,150.3586L579.8044,147.7495L673.0019,147.3641"/>
  </g>
  <g style="fill:#000000; fill-rule:nonzero">
   <ellipse  rx="7.6500" ry="7.6500" cx="204.0055" cy="210.2627"/>
  </g>
  <g style="fill:none; stroke:#000000; stroke-width:  0.9180; stroke-linecap:butt; stroke-linejoin:miter; stroke-dasharray:none">
   <ellipse  rx="7.6500" ry="7.6500" cx="204.0055" cy="210.2627"/>
  </g>
  <g style="fill:#000000; fill-rule:nonzero">
   <ellipse  rx="7.6500" ry="7.6500" cx="267.1389" cy="178.2416"/>
  </g>
  <g style="fill:none; stroke:#000000; stroke-width:  0.9180; stroke-linecap:butt; stroke-linejoin:miter; stroke-dasharray:none">
   <ellipse  rx="7.6500" ry="7.6500" cx="267.1389" cy="178.2416"/>
  </g>
  <g style="fill:#000000; fill-rule:nonzero">
   <ellipse  rx="7.6500" ry="7.6500" cx="336.2866" cy="171.0881"/>
  </g>
  <g style="fill:none; stroke:#000000; stroke-width:  0.9180; stroke-linecap:butt; stroke-linejoin:miter; stroke-dasharray:none">
   <ellipse  rx="7.6500" ry="7.6500" cx="336.2866" cy="171.0881"/>
  </g>
  <g style="fill:#000000; fill-rule:nonzero">
   <ellipse  rx="7.6500" ry="7.6500" cx="411.4450" cy="154.2325"/>
  </g>
  <g style="fill:none; stroke:#000000; stroke-width:  0.9180; stroke-linecap:butt; stroke-linejoin:miter; stroke-dasharray:none">
   <ellipse  rx="7.6500" ry="7.6500" cx="411.4450" cy="154.2325"/>
  </g>
  <g style="fill:#000000; fill-rule:nonzero">
   <ellipse  rx="7.6500" ry="7.6500" cx="492.6176" cy="150.3586"/>
  </g>
  <g style="fill:none; stroke:#000000; stroke-width:  0.9180; stroke-linecap:butt; stroke-linejoin:miter; stroke-dasharray:none">
   <ellipse  rx="7.6500" ry="7.6500" cx="492.6176" cy="150.3586"/>
  </g>
  <g style="fill:#000000; fill-rule:nonzero">
   <ellipse  rx="7.6500" ry="7.6500" cx="579.8044" cy="147.7495"/>
  </g>
  <g style="fill:none; stroke:#000000; stroke-width:  0.9180; stroke-linecap:butt; stroke-linejoin:miter; stroke-dasharray:none">
   <ellipse  rx="7.6500" ry="7.6500" cx="579.8044" cy="147.7495"/>
  </g>
  <g style="fill:#000000; fill-rule:nonzero">
   <ellipse  rx="7.6500" ry="7.6500" cx="673.0019" cy="147.3641"/>
  </g>
  <g style="fill:none; stroke:#000000; stroke-width:  0.9180; stroke-linecap:butt; stroke-linejoin:miter; stroke-dasharray:none">
   <ellipse  rx="7.6500" ry="7.6500" cx="673.0019" cy="147.3641"/>
  </g>
  <g style="fill:none; stroke:#FF0000; stroke-width:  2.7540; stroke-linecap:butt; stroke-linejoin:miter; stroke-dasharray:none">
   <path d="M204.0055,529.6628L267.1389,328.7599L336.2866,245.3917L411.4450,192.2185L492.6176,170.6294L579.8044,158.9137L673.0019,153.7078"/>
  </g>
  <g style="fill:#FF0000; fill-rule:nonzero">
   <path  d="M204.0055,538.4963L196.3555,525.2461L211.6555,525.2461z"/>
  </g>
  <g style="fill:none; stroke:#FF0000; stroke-width:  0.9180; stroke-linecap:butt; stroke-linejoin:miter; stroke-dasharray:none">
   <path d="M204.0055,538.4963L196.3555,525.2461L211.6555,525.2461z"/>
  </g>
  <g style="fill:#FF0000; fill-rule:nonzero">
   <path  d="M267.1389,337.5934L259.4889,324.3432L274.7889,324.3432z"/>
  </g>
  <g style="fill:none; stroke:#FF0000; stroke-width:  0.9180; stroke-linecap:butt; stroke-linejoin:miter; stroke-dasharray:none">
   <path d="M267.1389,337.5934L259.4889,324.3432L274.7889,324.3432z"/>
  </g>
  <g style="fill:#FF0000; fill-rule:nonzero">
   <path  d="M336.2866,254.2252L328.6366,240.9750L343.9366,240.9750z"/>
  </g>
  <g style="fill:none; stroke:#FF0000; stroke-width:  0.9180; stroke-linecap:butt; stroke-linejoin:miter; stroke-dasharray:none">
   <path d="M336.2866,254.2252L328.6366,240.9750L343.9366,240.9750z"/>
  </g>
  <g style="fill:#FF0000; fill-rule:nonzero">
   <path  d="M411.4450,201.0519L403.7950,187.8017L419.0950,187.8017z"/>
  </g>
  <g style="fill:none; stroke:#FF0000; stroke-width:  0.9180; stroke-linecap:butt; stroke-linejoin:miter; stroke-dasharray:none">
   <path d="M411.4450,201.0519L403.7950,187.8017L419.0950,187.8017z"/>
  </g>
  <g style="fill:#FF0000; fill-rule:nonzero">
   <path  d="M492.6176,179.4629L484.9676,166.2127L500.2676,166.2127z"/>
  </g>
  <g style="fill:none; stroke:#FF0000; stroke-width:  0.9180; stroke-linecap:butt; stroke-linejoin:miter; stroke-dasharray:none">
   <path d="M492.6176,179.4629L484.9676,166.2127L500.2676,166.2127z"/>
  </g>
  <g style="fill:#FF0000; fill-rule:nonzero">
   <path  d="M579.8044,167.7472L572.1544,154.4970L587.4544,154.4970z"/>
  </g>
  <g style="fill:none; stroke:#FF0000; stroke-width:  0.9180; stroke-linecap:butt; stroke-linejoin:miter; stroke-dasharray:none">
   <path d="M579.8044,167.7472L572.1544,154.4970L587.4544,154.4970z"/>
  </g>
  <g style="fill:#FF0000; fill-rule:nonzero">
   <path  d="M673.0019,162.5413L665.3519,149.2911L680.6519,149.2911z"/>
  </g>
  <g style="fill:none; stroke:#FF0000; stroke-width:  0.9180; stroke-linecap:butt; stroke-linejoin:miter; stroke-dasharray:none">
   <path d="M673.0019,162.5413L665.3519,149.2911L680.6519,149.2911z"/>
  </g>
  <g style="fill:none; stroke:#0000FF; stroke-width:  2.7540; stroke-linecap:butt; stroke-linejoin:miter; stroke-dasharray:none">
   <path d="M204.0055,384.0245L267.1389,252.4705L336.2866,204.7038L411.4450,169.9560L492.6176,158.1362L579.8044,151.7293L673.0019,149.4852"/>
  </g>
  <g style="fill:#0000FF; fill-rule:nonzero">
   <path  d="M197.5030,377.5220L197.5030,390.5270L210.5080,390.5270L210.5080,377.5220z"/>
  </g>
  <g style="fill:none; stroke:#0000FF; stroke-width:  0.9180; stroke-linecap:butt; stroke-linejoin:miter; stroke-dasharray:none">
   <path d="M197.5030,377.5220L197.5030,390.5270L210.5080,390.5270L210.5080,377.5220z"/>
  </g>
  <g style="fill:#0000FF; fill-rule:nonzero">
   <path  d="M260.6364,245.9680L260.6364,258.9730L273.6414,258.9730L273.6414,245.9680z"/>
  </g>
  <g style="fill:none; stroke:#0000FF; stroke-width:  0.9180; stroke-linecap:butt; stroke-linejoin:miter; stroke-dasharray:none">
   <path d="M260.6364,245.9680L260.6364,258.9730L273.6414,258.9730L273.6414,245.9680z"/>
  </g>
  <g style="fill:#0000FF; fill-rule:nonzero">
   <path  d="M329.7841,198.2013L329.7841,211.2063L342.7891,211.2063L342.7891,198.2013z"/>
  </g>
  <g style="fill:none; stroke:#0000FF; stroke-width:  0.9180; stroke-linecap:butt; stroke-linejoin:miter; stroke-dasharray:none">
   <path d="M329.7841,198.2013L329.7841,211.2063L342.7891,211.2063L342.7891,198.2013z"/>
  </g>
  <g style="fill:#0000FF; fill-rule:nonzero">
   <path  d="M404.9425,163.4535L404.9425,176.4585L417.9475,176.4585L417.9475,163.4535z"/>
  </g>
  <g style="fill:none; stroke:#0000FF; stroke-width:  0.9180; stroke-linecap:butt; stroke-linejoin:miter; stroke-dasharray:none">
   <path d="M404.9425,163.4535L404.9425,176.4585L417.9475,176.4585L417.9475,163.4535z"/>
  </g>
  <g style="fill:#0000FF; fill-rule:nonzero">
   <path  d="M486.1151,151.6337L486.1151,164.6387L499.1201,164.6387L499.1201,151.6337z"/>
  </g>
  <g style="fill:none; stroke:#0000FF; stroke-width:  0.9180; stroke-linecap:butt; stroke-linejoin:miter; stroke-dasharray:none">
   <path d="M486.1151,151.6337L486.1151,164.6387L499.1201,164.6387L499.1201,151.6337z"/>
  </g>
  <g style="fill:#0000FF; fill-rule:nonzero">
   <path  d="M573.3019,145.2268L573.3019,158.2318L586.3069,158.2318L586.3069,145.2268z"/>
  </g>
  <g style="fill:none; stroke:#0000FF; stroke-width:  0.9180; stroke-linecap:butt; stroke-linejoin:miter; stroke-dasharray:none">
   <path d="M573.3019,145.2268L573.3019,158.2318L586.3069,158.2318L586.3069,145.2268z"/>
  </g>
  <g style="fill:#0000FF; fill-rule:nonzero">
   <path  d="M666.4994,142.9827L666.4994,155.9877L679.5044,155.9877L679.5044,142.9827z"/>
  </g>
  <g style="fill:none; stroke:#0000FF; stroke-width:  0.9180; stroke-linecap:butt; stroke-linejoin:miter; stroke-dasharray:none">
   <path d="M666.4994,142.9827L666.4994,155.9877L679.5044,155.9877L679.5044,142.9827z"/>
  </g>
  <g style="fill:none; stroke:#000000; stroke-width:  2.7540; stroke-linecap:butt; stroke-linejoin:miter; stroke-dasharray:none">
   <path d="M765.0612,146.0057L110.0988,146.0057"/>
  </g>
  <g style="fill:none; stroke:#000000; stroke-width:  0.9180; stroke-linecap:butt; stroke-linejoin:miter; stroke-dasharray:none">
   <path d="M110.1600,73.4400L765.0000,73.4400"/>
   <path d="M110.1600,581.4000L765.0000,581.4000"/>
  </g>
  <g style="fill:none; stroke:#000000; stroke-width:  2.7540; stroke-linecap:butt; stroke-linejoin:miter; stroke-dasharray:none">
   <path d="M248.0211,73.4400L248.0211,85.6800"/>
   <path d="M248.0211,581.4000L248.0211,569.1600"/>
   <path d="M420.3474,73.4400L420.3474,85.6800"/>
   <path d="M420.3474,581.4000L420.3474,569.1600"/>
   <path d="M592.6737,73.4400L592.6737,85.6800"/>
   <path d="M592.6737,581.4000L592.6737,569.1600"/>
   <path d="M765.0000,73.4400L765.0000,85.6800"/>
   <path d="M765.0000,581.4000L765.0000,569.1600"/>
  </g>
  <g style="fill:#000000; fill-rule:nonzero">
   <text   style="font-family:'Times','Nimbus Roman No9 L'; font-style:normal; font-weight:bold; font-size:612.0000" transform="matrix(0.0490,0.0000,-0.0000,-0.0490,225.5211,46.3200)">100</text>
   <text   style="font-family:'Times','Nimbus Roman No9 L'; font-style:normal; font-weight:bold; font-size:612.0000" transform="matrix(0.0490,0.0000,-0.0000,-0.0490,397.8474,46.3200)">150</text>
   <text   style="font-family:'Times','Nimbus Roman No9 L'; font-style:normal; font-weight:bold; font-size:612.0000" transform="matrix(0.0490,0.0000,-0.0000,-0.0490,570.1737,46.3200)">200</text>
   <text   style="font-family:'Times','Nimbus Roman No9 L'; font-style:normal; font-weight:bold; font-size:612.0000" transform="matrix(0.0490,0.0000,-0.0000,-0.0490,742.5000,46.3200)">250</text>
   <text   style="font-family:'Times','Nimbus Roman No9 L'; font-style:normal; font-weight:bold; font-size:612.0000" transform="matrix(0.0490,0.0000,-0.0000,-0.0490,318.0800,18.2000)">Energy cutoff (Ry)</text>
  </g>
  <g style="fill:none; stroke:#000000; stroke-width:  0.9180; stroke-linecap:butt; stroke-linejoin:miter; stroke-dasharray:none">
   <path d="M110.1600,73.4400L110.1600,581.4000"/>
   <path d="M765.0000,73.4400L765.0000,581.4000"/>
  </g>
  <g style="fill:none; stroke:#000000; stroke-width:  2.7540; stroke-linecap:butt; stroke-linejoin:miter; stroke-dasharray:none">
   <path d="M110.1600,146.0057L122.4000,146.0057"/>
   <path d="M765.0000,146.0057L752.7600,146.0057"/>
   <path d="M110.1600,291.1371L122.4000,291.1371"/>
   <path d="M765.0000,291.1371L752.7600,291.1371"/>
   <path d="M110.1600,436.2686L122.4000,436.2686"/>
   <path d="M765.0000,436.2686L752.7600,436.2686"/>
   <path d="M110.1600,581.4000L122.4000,581.4000"/>
   <path d="M765.0000,581.4000L752.7600,581.4000"/>
  </g>
  <g style="fill:#000000; fill-rule:nonzero">
   <text   style="font-family:'Times','Nimbus Roman No9 L'; font-style:normal; font-weight:bold; font-size:612.0000" transform="matrix(0.0490,0.0000,-0.0000,-0.0490,89.0400,136.0057)">0</text>
   <text   style="font-family:'Times','Nimbus Roman No9 L'; font-style:normal; font-weight:bold; font-size:612.0000" transform="matrix(0.0490,0.0000,-0.0000,-0.0490,37.0400,281.1371)">0.004</text>
   <text   style="font-family:'Times','Nimbus Roman No9 L'; font-style:normal; font-weight:bold; font-size:612.0000" transform="matrix(0.0490,0.0000,-0.0000,-0.0490,37.0400,426.2686)">0.008</text>
   <text   style="font-family:'Times','Nimbus Roman No9 L'; font-style:normal; font-weight:bold; font-size:612.0000" transform="matrix(0.0490,0.0000,-0.0000,-0.0490,37.0400,571.4000)">0.012</text>
   <text   style="font-family:'Symbol','Standard Symbols L'; font-style:normal; font-weight:normal; font-size:612.0000" transform="matrix(0.0000,0.0490,0.0490,-0.0000,24.9200,236.9200)">DE</text>
   <text   style="font-family:'Times','Nimbus Roman No9 L'; font-style:normal; font-weight:bold; font-size:612.0000" transform="matrix(0.0000,0.0490,0.0490,-0.0000,24.9200,273.9200)">  (Ry/atom)</text>
  </g>
  <g style="fill:none; stroke:#000000; stroke-width:  2.7540; stroke-linecap:butt; stroke-linejoin:miter; stroke-dasharray:none">
   <path d="M110.1600,73.4400L110.1600,581.4000L765.0000,581.4000L765.0000,73.4400z"/>
  </g>
  <g style="fill:#FFFFFF; fill-rule:nonzero">
   <path  d="M520.2000,544.6800L520.2000,463.2000L681.7990,463.2000L681.7990,544.6800z"/>
  </g>
  <g style="fill:none; stroke:#000000; stroke-width:  2.7540; stroke-linecap:butt; stroke-linejoin:miter; stroke-dasharray:none">
   <path d="M520.2000,544.6800L520.2000,463.2000L681.7990,463.2000L681.7990,544.6800z"/>
  </g>
  <g style="fill:#000000; fill-rule:nonzero">
   <text   style="font-family:'Times','Nimbus Roman No9 L'; font-style:normal; font-weight:bold; font-size:612.0000" transform="matrix(0.0420,0.0000,-0.0000,-0.0420,572.6790,520.5600)">8th AFD</text>
  </g>
  <g style="fill:none; stroke:#000000; stroke-width:  2.7540; stroke-linecap:butt; stroke-linejoin:miter; stroke-dasharray:none">
   <path d="M534.4290,529.0600L558.9090,529.0600"/>
  </g>
  <g style="fill:#000000; fill-rule:nonzero">
   <ellipse  rx="7.6500" ry="7.6500" cx="534.4290" cy="529.0600"/>
  </g>
  <g style="fill:none; stroke:#000000; stroke-width:  0.9180; stroke-linecap:butt; stroke-linejoin:miter; stroke-dasharray:none">
   <ellipse  rx="7.6500" ry="7.6500" cx="534.4290" cy="529.0600"/>
  </g>
  <g style="fill:#000000; fill-rule:nonzero">
   <ellipse  rx="7.6500" ry="7.6500" cx="558.9090" cy="529.0600"/>
  </g>
  <g style="fill:none; stroke:#000000; stroke-width:  0.9180; stroke-linecap:butt; stroke-linejoin:miter; stroke-dasharray:none">
   <ellipse  rx="7.6500" ry="7.6500" cx="558.9090" cy="529.0600"/>
  </g>
  <g style="fill:#000000; fill-rule:nonzero">
   <text   style="font-family:'Times','Nimbus Roman No9 L'; font-style:normal; font-weight:bold; font-size:612.0000" transform="matrix(0.0420,0.0000,-0.0000,-0.0420,572.6790,495.4400)">10th SFD</text>
  </g>
  <g style="fill:none; stroke:#FF0000; stroke-width:  2.7540; stroke-linecap:butt; stroke-linejoin:miter; stroke-dasharray:none">
   <path d="M534.4290,503.9400L558.9090,503.9400"/>
  </g>
  <g style="fill:#FF0000; fill-rule:nonzero">
   <path  d="M534.4290,512.7735L526.7790,499.5233L542.0790,499.5233z"/>
  </g>
  <g style="fill:none; stroke:#FF0000; stroke-width:  0.9180; stroke-linecap:butt; stroke-linejoin:miter; stroke-dasharray:none">
   <path d="M534.4290,512.7735L526.7790,499.5233L542.0790,499.5233z"/>
  </g>
  <g style="fill:#FF0000; fill-rule:nonzero">
   <path  d="M558.9090,512.7735L551.2590,499.5233L566.5590,499.5233z"/>
  </g>
  <g style="fill:none; stroke:#FF0000; stroke-width:  0.9180; stroke-linecap:butt; stroke-linejoin:miter; stroke-dasharray:none">
   <path d="M558.9090,512.7735L551.2590,499.5233L566.5590,499.5233z"/>
  </g>
  <g style="fill:#000000; fill-rule:nonzero">
   <text   style="font-family:'Times','Nimbus Roman No9 L'; font-style:normal; font-weight:bold; font-size:612.0000" transform="matrix(0.0420,0.0000,-0.0000,-0.0420,572.6790,470.3200)">12th SFD</text>
  </g>
  <g style="fill:none; stroke:#0000FF; stroke-width:  2.7540; stroke-linecap:butt; stroke-linejoin:miter; stroke-dasharray:none">
   <path d="M534.4290,478.8200L558.9090,478.8200"/>
  </g>
  <g style="fill:#0000FF; fill-rule:nonzero">
   <path  d="M527.9265,472.3175L527.9265,485.3225L540.9315,485.3225L540.9315,472.3175z"/>
  </g>
  <g style="fill:none; stroke:#0000FF; stroke-width:  0.9180; stroke-linecap:butt; stroke-linejoin:miter; stroke-dasharray:none">
   <path d="M527.9265,472.3175L527.9265,485.3225L540.9315,485.3225L540.9315,472.3175z"/>
  </g>
  <g style="fill:#0000FF; fill-rule:nonzero">
   <path  d="M552.4065,472.3175L552.4065,485.3225L565.4115,485.3225L565.4115,472.3175z"/>
  </g>
  <g style="fill:none; stroke:#0000FF; stroke-width:  0.9180; stroke-linecap:butt; stroke-linejoin:miter; stroke-dasharray:none">
   <path d="M552.4065,472.3175L552.4065,485.3225L565.4115,485.3225L565.4115,472.3175z"/>
  </g>
  <g style="fill:#000000; fill-rule:nonzero">
   <text   style="font-family:'Times','Nimbus Roman No9 L'; font-style:normal; font-weight:bold; font-size:612.0000" transform="matrix(0.0840,0.0000,-0.0000,-0.0840,520.2000,410.0400)">SiO2</text>
  </g>
 </g>
</svg>
